<svg width="275" height="59" viewBox="0 0 275 59" fill="none" xmlns="http://www.w3.org/2000/svg">
<path d="M1.50001 28.5L179.869 20.1091L262.52 21.6418C264.591 21.6802 266.366 23.1325 266.815 25.1552C267.428 27.9195 265.357 30.5531 262.526 30.61L134.304 33.1874L1.50001 28.5Z" fill="#FFD706"/>
<path d="M35.3125 24.0625C35.0833 24.3542 34.9062 24.6771 34.7812 25.0312C34.6562 25.3854 34.5 25.7188 34.3125 26.0312C34.1458 26.3438 33.9271 26.6042 33.6562 26.8125C33.4062 27.0208 33.0521 27.1146 32.5938 27.0938C32.2604 27.2188 32.0104 27.4479 31.8438 27.7812C31.6979 28.0938 31.5521 28.4167 31.4062 28.75C31.2604 29.0625 31.0729 29.3229 30.8438 29.5312C30.6146 29.7188 30.2708 29.7396 29.8125 29.5938C29.2292 29.8438 28.6979 30.1771 28.2188 30.5938C27.7604 30.9896 27.3229 31.4062 26.9062 31.8438C26.7604 31.9896 26.5938 32.1771 26.4062 32.4062C26.2188 32.6146 26.0417 32.7708 25.875 32.875C25.7292 32.9583 25.5833 32.9688 25.4375 32.9062C25.2917 32.8438 25.1562 32.7812 25.0312 32.7188C24.9062 32.6354 24.7812 32.5938 24.6562 32.5938C24.5521 32.5938 24.4583 32.6875 24.375 32.875C24.5208 33.1667 24.5521 33.3646 24.4688 33.4688C24.3854 33.5938 24.25 33.6875 24.0625 33.75C23.875 33.8125 23.6771 33.8646 23.4688 33.9062C23.2604 33.9479 23.0938 34.0208 22.9688 34.125C22.7188 34.3542 22.5417 34.6354 22.4375 34.9688C22.3333 35.3021 22.2396 35.6354 22.1562 35.9688C22.0729 36.3021 21.9479 36.6146 21.7812 36.9062C21.6354 37.2188 21.3854 37.4583 21.0312 37.625C21.2396 37.7708 21.3229 37.9167 21.2812 38.0625C21.2604 38.2083 21.2083 38.3542 21.125 38.5C21.0417 38.6667 20.9792 38.8229 20.9375 38.9688C20.9167 39.1146 21 39.2604 21.1875 39.4062C20.875 39.8021 20.5938 40.2292 20.3438 40.6875C20.1146 41.1458 19.8854 41.6042 19.6562 42.0625C19.4271 42.5417 19.1771 43 18.9062 43.4375C18.6562 43.8958 18.3333 44.3021 17.9375 44.6562L18.0312 45.4062C17.7188 45.3229 17.5208 45.3333 17.4375 45.4375C17.375 45.5417 17.3438 45.6875 17.3438 45.875C17.3438 46.0625 17.3438 46.25 17.3438 46.4375C17.3646 46.6458 17.3021 46.8021 17.1562 46.9062C17.0938 46.9896 17.0208 47.0521 16.9375 47.0938C16.875 47.1354 16.8125 47.1875 16.75 47.25C16.0833 47.75 15.625 48.3854 15.375 49.1562C15.3333 49.2812 15.3021 49.4062 15.2812 49.5312C15.2604 49.6562 15.2292 49.7917 15.1875 49.9375C15.0833 50.2292 14.9167 50.5312 14.6875 50.8438C14.4583 51.1562 14.2083 51.4792 13.9375 51.8125C13.6667 52.1458 13.4062 52.4896 13.1562 52.8438C12.9062 53.2188 12.7083 53.5938 12.5625 53.9688C12.2292 53.9271 11.9688 53.9583 11.7812 54.0625C11.5729 54.1875 11.4062 54.3438 11.2812 54.5312C11.1562 54.7396 11.0521 54.9583 10.9688 55.1875C10.8854 55.4167 10.7812 55.6146 10.6562 55.7812C10.5104 55.9688 10.3333 56.1042 10.125 56.1875C9.89583 56.2917 9.60417 56.2917 9.25 56.1875L7.84375 57.4688C7.59375 57.3229 7.35417 57.2917 7.125 57.375C6.875 57.4583 6.63542 57.5729 6.40625 57.7188C6.15625 57.8646 5.91667 57.9792 5.6875 58.0625C5.4375 58.1458 5.17708 58.1146 4.90625 57.9688C4.76042 58.1354 4.63542 58.2188 4.53125 58.2188C4.42708 58.2396 4.30208 58.1562 4.15625 57.9688L3.6875 58.4688C3.4375 58.2604 3.13542 58.0625 2.78125 57.875C2.40625 57.7083 2.0625 57.5104 1.75 57.2812C1.4375 57.0729 1.1875 56.8229 1 56.5312C0.8125 56.2604 0.78125 55.9062 0.90625 55.4688C0.864583 55.3438 0.802083 55.2083 0.71875 55.0625C0.614583 54.9167 0.53125 54.7604 0.46875 54.5938C0.40625 54.4479 0.364583 54.2917 0.34375 54.125C0.322917 53.9792 0.364583 53.8438 0.46875 53.7188C0.28125 53.3646 0.21875 53 0.28125 52.625C0.322917 52.2708 0.395833 51.9167 0.5 51.5625C0.604167 51.2083 0.6875 50.8542 0.75 50.5C0.8125 50.1458 0.75 49.7917 0.5625 49.4375C0.8125 49.25 1 49.0104 1.125 48.7188C1.22917 48.4271 1.33333 48.125 1.4375 47.8125C1.52083 47.5 1.61458 47.1979 1.71875 46.9062C1.82292 46.6146 2 46.375 2.25 46.1875L2.21875 45.6875C3.19792 44.6458 4.23958 43.6875 5.34375 42.8125C6.42708 41.9583 7.65625 41.3229 9.03125 40.9062C9.30208 40.4271 9.65625 40.0729 10.0938 39.8438C10.5312 39.6354 10.9792 39.4375 11.4375 39.25C11.875 39.0833 12.2812 38.8646 12.6562 38.5938C13.0312 38.3438 13.3125 37.9375 13.5 37.375C13.6042 37.6042 13.7083 37.6979 13.8125 37.6562C13.9167 37.6354 14.0208 37.5833 14.125 37.5C14.25 37.4375 14.3646 37.3854 14.4688 37.3438C14.5729 37.3229 14.6771 37.4167 14.7812 37.625C14.9896 37 15.3229 36.5 15.7812 36.125C16.2604 35.75 16.7812 35.4167 17.3438 35.125C17.9271 34.8542 18.5104 34.5833 19.0938 34.3125C19.6771 34.0625 20.1875 33.75 20.625 33.375C21.0833 33 21.4271 32.5417 21.6562 32C21.8854 31.4375 21.9375 30.7188 21.8125 29.8438C22 29.7188 22.125 29.5625 22.1875 29.375C22.25 29.1667 22.2917 28.9583 22.3125 28.75C22.3542 28.5417 22.4062 28.3542 22.4688 28.1875C22.5312 28.0208 22.6667 27.9062 22.875 27.8438C22.7292 27.6146 22.5521 27.5104 22.3438 27.5312C22.1354 27.5521 21.9167 27.6146 21.6875 27.7188C21.4792 27.8229 21.2812 27.9271 21.0938 28.0312C20.9062 28.1354 20.75 28.1562 20.625 28.0938C20.5625 28.3854 20.4271 28.5938 20.2188 28.7188C20.0312 28.8438 19.8229 28.9583 19.5938 29.0625C19.3646 29.1458 19.125 29.2396 18.875 29.3438C18.625 29.4479 18.4271 29.6146 18.2812 29.8438C18.0938 29.7604 17.9167 29.8021 17.75 29.9688C17.6042 30.1146 17.4479 30.2812 17.2812 30.4688C17.1354 30.6354 16.9688 30.7604 16.7812 30.8438C16.5938 30.9271 16.375 30.8438 16.125 30.5938C16 30.9271 15.7917 31.1458 15.5 31.25C15.2292 31.3542 14.9271 31.4062 14.5938 31.4062C14.2604 31.4062 13.9167 31.3854 13.5625 31.3438C13.2292 31.3021 12.9271 31.3125 12.6562 31.375L12.125 30.8438C12.0833 30.9479 12.0208 31.0312 11.9375 31.0938C11.8333 31.1562 11.7292 31.1667 11.625 31.125C11.4583 30.7708 11.3021 30.3958 11.1562 30C10.9896 29.5833 10.8854 29.1771 10.8438 28.7812C10.7812 28.3646 10.8125 27.9688 10.9375 27.5938C11.0625 27.1979 11.3125 26.8542 11.6875 26.5625C12.2708 25.5 13.0312 24.6667 13.9688 24.0625C14.0729 24.1458 14.1875 24.1771 14.3125 24.1562C14.4375 24.1146 14.5625 24.0625 14.6875 24C14.8333 23.9167 14.9688 23.8333 15.0938 23.75C15.2188 23.6458 15.3333 23.5833 15.4375 23.5625C15.5 23.3333 15.6146 23.1146 15.7812 22.9062C15.9688 22.6979 16.1667 22.5104 16.375 22.3438C16.6042 22.1771 16.8333 22.0312 17.0625 21.9062C17.3125 21.7604 17.5417 21.6354 17.75 21.5312C18.1458 21.3438 18.5104 21.1146 18.8438 20.8438C19.1979 20.5521 19.5521 20.2812 19.9062 20.0312C20.2604 19.7604 20.625 19.5312 21 19.3438C21.375 19.1562 21.8021 19.0625 22.2812 19.0625L22.8438 19.5625C22.4896 19.7708 22.1771 20.0312 21.9062 20.3438C21.6562 20.6354 21.3958 20.9375 21.125 21.25C20.8542 21.5417 20.5625 21.8125 20.25 22.0625C19.9375 22.3125 19.5521 22.4792 19.0938 22.5625C18.7188 23.2917 18.2083 23.9167 17.5625 24.4375C16.9375 24.9375 16.2917 25.4062 15.625 25.8438C15.625 26.1562 15.5312 26.4062 15.3438 26.5938C15.1562 26.7812 14.9375 26.9479 14.6875 27.0938C14.4375 27.2396 14.1875 27.375 13.9375 27.5C13.6875 27.6042 13.4792 27.75 13.3125 27.9375C13.1667 28.1042 13.0938 28.3229 13.0938 28.5938C13.0938 28.8438 13.2292 29.1771 13.5 29.5938C13.75 29.4688 14.0521 29.3854 14.4062 29.3438C14.7604 29.3021 15.1042 29.25 15.4375 29.1875C15.7708 29.1042 16.0625 28.9896 16.3125 28.8438C16.5833 28.6771 16.7708 28.4271 16.875 28.0938C17.1667 27.8438 17.4792 27.6875 17.8125 27.625C18.1458 27.5625 18.4896 27.5521 18.8438 27.5938C19.5312 26.8438 20.2188 26.1562 20.9062 25.5312C21.6146 24.8854 22.2812 24.2292 22.9062 23.5625C23.5312 22.8958 24.1042 22.1875 24.625 21.4375C25.1667 20.6667 25.6354 19.7812 26.0312 18.7812C26.4479 18.6562 26.8229 18.7083 27.1562 18.9375C27.4896 19.1667 27.7292 19.4583 27.875 19.8125C27.8333 20.0625 27.7604 20.3021 27.6562 20.5312C27.5729 20.7396 27.4896 20.9479 27.4062 21.1562C27.3438 21.3438 27.2917 21.5521 27.25 21.7812C27.2292 22.0104 27.2708 22.2708 27.375 22.5625C27.2083 22.5208 27.0729 22.5729 26.9688 22.7188C26.8854 22.8646 26.7917 22.9896 26.6875 23.0938C26.75 23.3646 26.7396 23.6146 26.6562 23.8438C26.5729 24.0521 26.4688 24.2604 26.3438 24.4688C26.2188 24.6562 26.1042 24.8646 26 25.0938C25.9167 25.3229 25.8958 25.5729 25.9375 25.8438C25.6458 26.3854 25.4271 26.9583 25.2812 27.5625C25.1562 28.1458 25.0729 28.7396 25.0312 29.3438L25.5938 29.8438C25.8646 29.4479 26.1979 29.1667 26.5938 29C27.0104 28.8333 27.4271 28.6979 27.8438 28.5938C28.2604 28.4688 28.6667 28.3333 29.0625 28.1875C29.4583 28.0208 29.8021 27.7396 30.0938 27.3438C30.2188 26.7396 30.4792 26.3125 30.875 26.0625C31.2708 25.7917 31.6875 25.5625 32.125 25.375C32.5625 25.1875 32.9792 24.9792 33.375 24.75C33.7917 24.5 34.0833 24.1042 34.25 23.5625H35.0312C34.9896 23.6667 35.0104 23.7604 35.0938 23.8438C35.1771 23.9271 35.25 24 35.3125 24.0625ZM18.0312 37.9062C17.8229 38.0312 17.5938 38.1458 17.3438 38.25C17.0938 38.3542 16.8438 38.4688 16.5938 38.5938C16.3438 38.7188 16.1146 38.8646 15.9062 39.0312C15.6979 39.1979 15.5417 39.4062 15.4375 39.6562C15.2083 39.5312 14.9896 39.5208 14.7812 39.625C14.5938 39.75 14.4062 39.8854 14.2188 40.0312C14.0312 40.1979 13.8333 40.3333 13.625 40.4375C13.4375 40.5417 13.2292 40.5312 13 40.4062C12.6042 40.6562 12.2292 40.9271 11.875 41.2188C11.5 41.5104 11.125 41.7917 10.75 42.0625C10.375 42.3542 9.98958 42.6146 9.59375 42.8438C9.17708 43.0938 8.73958 43.2812 8.28125 43.4062C8.05208 43.7812 7.75 44.0729 7.375 44.2812C7 44.5104 6.625 44.7292 6.25 44.9375C5.85417 45.1458 5.5 45.3958 5.1875 45.6875C4.875 45.9792 4.67708 46.3854 4.59375 46.9062C3.94792 47.3229 3.51042 47.8542 3.28125 48.5C3.03125 49.1667 2.89583 49.8646 2.875 50.5938C2.85417 51.3438 2.88542 52.0938 2.96875 52.8438C3.05208 53.6146 3.09375 54.3125 3.09375 54.9375C3.36458 55.25 3.63542 55.4688 3.90625 55.5938C4.17708 55.7188 4.45833 55.7812 4.75 55.7812C5.04167 55.7812 5.34375 55.7396 5.65625 55.6562C5.94792 55.5938 6.27083 55.5312 6.625 55.4688C6.70833 55.1562 6.86458 54.9479 7.09375 54.8438C7.30208 54.7604 7.53125 54.6979 7.78125 54.6562C8.01042 54.6146 8.22917 54.5521 8.4375 54.4688C8.625 54.4062 8.72917 54.2396 8.75 53.9688L9.03125 54.2188C9.05208 53.8854 9.14583 53.6042 9.3125 53.375C9.47917 53.1667 9.67708 52.9688 9.90625 52.7812C10.1354 52.5938 10.3854 52.4167 10.6562 52.25C10.9062 52.0833 11.125 51.8958 11.3125 51.6875C11.2708 51.2917 11.3438 50.9583 11.5312 50.6875C11.7188 50.4167 11.9271 50.1667 12.1562 49.9375C12.3854 49.7083 12.5938 49.4583 12.7812 49.1875C12.9479 48.9167 13.0104 48.5729 12.9688 48.1562C13.1771 48.0729 13.3229 47.9375 13.4062 47.75C13.4896 47.5625 13.5729 47.3854 13.6562 47.2188C13.7396 47.0521 13.8438 46.9271 13.9688 46.8438C14.1146 46.7604 14.3333 46.7812 14.625 46.9062C14.3333 46.6771 14.2083 46.5 14.25 46.375C14.3125 46.25 14.4167 46.1354 14.5625 46.0312C14.7083 45.9479 14.8438 45.8438 14.9688 45.7188C15.0938 45.5938 15.0938 45.4062 14.9688 45.1562C15.4688 44.9479 15.7917 44.6458 15.9375 44.25C16.0833 43.8542 16.1875 43.4271 16.25 42.9688C16.3333 42.5312 16.4479 42.0938 16.5938 41.6562C16.7396 41.2396 17.0625 40.9062 17.5625 40.6562C17.5208 40.2812 17.5833 39.9479 17.75 39.6562C17.9375 39.3854 18.1146 39.125 18.2812 38.875C18.4688 38.625 18.5938 38.3646 18.6562 38.0938C18.7396 37.8229 18.6667 37.5 18.4375 37.125L18.0312 37.9062Z" fill="black"/>
<path d="M56.875 23.4375C56.6875 23.625 56.5417 23.7708 56.4375 23.875C56.3542 23.9792 56.2708 24.0833 56.1875 24.1875C56.125 24.2708 56.0417 24.3646 55.9375 24.4688C55.8542 24.5729 55.7188 24.7292 55.5312 24.9375C55.3646 25.1042 55.2083 25.2812 55.0625 25.4688C54.9167 25.6562 54.75 25.8229 54.5625 25.9688C54.3125 25.9062 54.1146 25.9375 53.9688 26.0625C53.8438 26.1875 53.7188 26.3333 53.5938 26.5C53.4896 26.6458 53.3854 26.7917 53.2812 26.9375C53.1979 27.0625 53.0833 27.1146 52.9375 27.0938C52.4375 27.3646 51.9375 27.6042 51.4375 27.8125C50.9375 28 50.4583 28.2812 50 28.6562L49.75 28.4062L46.5 29.9688C46.3958 30.0104 46.2917 30.0729 46.1875 30.1562C46.0833 30.2396 45.9792 30.3125 45.875 30.375C45.4167 30.625 44.9375 30.8542 44.4375 31.0625C43.9583 31.25 43.4792 31.4271 43 31.5938L42.5938 31.7188C42.7604 32.1354 42.7604 32.4271 42.5938 32.5938C42.4271 32.7604 42.1875 32.8854 41.875 32.9688C41.5625 33.0312 41.2188 33.0729 40.8438 33.0938C40.4688 33.1146 40.1771 33.1875 39.9688 33.3125C39.7188 33.2708 39.4583 33.25 39.1875 33.25C38.9375 33.2708 38.6771 33.3021 38.4062 33.3438C38.1146 33.3854 37.8438 33.4062 37.5938 33.4062C37.3438 33.4062 37.0729 33.375 36.7812 33.3125H36.7188C36.3646 33.4792 36.0521 33.5104 35.7812 33.4062C35.5312 33.3229 35.3021 33.1771 35.0938 32.9688C34.8854 32.7396 34.6875 32.4792 34.5 32.1875C34.3333 31.875 34.1562 31.5938 33.9688 31.3438C33.8438 31.1771 33.6875 30.9375 33.5 30.625C33.3125 30.3125 33.1562 29.9792 33.0312 29.625C32.8854 29.2708 32.8021 28.9167 32.7812 28.5625C32.7396 28.1875 32.8125 27.8646 33 27.5938C33.1875 27.3229 33.3438 27.0312 33.4688 26.7188C33.5729 26.4062 33.625 26.0417 33.625 25.625C33.625 25.4792 33.625 25.3438 33.625 25.2188C33.6042 25.0938 33.5938 24.9583 33.5938 24.8125C33.6979 24.8125 33.8125 24.8229 33.9375 24.8438C34.0625 24.8438 34.1771 24.8438 34.2812 24.8438C34.4062 24.8229 34.5 24.7812 34.5625 24.7188C34.6458 24.6354 34.6875 24.5 34.6875 24.3125C34.6875 24.2083 34.6458 24.125 34.5625 24.0625C34.5 24 34.4583 23.9375 34.4375 23.875C34.5625 23.6875 34.6771 23.5417 34.7812 23.4375C34.9062 23.3125 35.0104 23.1979 35.0938 23.0938C35.1771 22.9688 35.2396 22.8333 35.2812 22.6875C35.3229 22.5208 35.3125 22.3021 35.25 22.0312C35.5 21.5938 35.7917 21.2083 36.125 20.875C36.4792 20.5208 36.8438 20.1979 37.2188 19.9062C37.5938 19.5938 37.9792 19.2917 38.375 19C38.7708 18.7083 39.1458 18.3958 39.5 18.0625C39.8958 18.2292 40.2083 18.2292 40.4375 18.0625C40.6875 17.8958 40.9062 17.7188 41.0938 17.5312C41.2812 17.3229 41.4688 17.1562 41.6562 17.0312C41.8438 16.9062 42.0938 16.9583 42.4062 17.1875L42.4688 17.25C43.0312 16.6875 43.5938 16.4375 44.1562 16.5C44.7396 16.5625 45.2292 16.75 45.625 17.0625C46.0417 17.375 46.3125 17.7396 46.4375 18.1562C46.5625 18.5521 46.4479 18.8229 46.0938 18.9688C46.3229 19.1979 46.4375 19.4688 46.4375 19.7812C46.4375 20.0938 46.3542 20.3646 46.1875 20.5938C46 20.8438 45.8333 21.1042 45.6875 21.375C45.5625 21.625 45.4271 21.8958 45.2812 22.1875C45.0729 22.6667 44.8438 23.125 44.5938 23.5625C44.3438 23.9792 43.9896 24.3333 43.5312 24.625C43.1562 24.5208 42.8958 24.5625 42.75 24.75C42.625 24.9375 42.5312 25.1458 42.4688 25.375C42.4062 25.5833 42.3333 25.75 42.25 25.875C42.1667 26 41.9896 25.9583 41.7188 25.75L41.6562 25.6875L41.5938 25.75C41.4271 25.9167 41.2917 26.1042 41.1875 26.3125C41.1042 26.5208 40.9792 26.6771 40.8125 26.7812C40.625 26.7188 40.4271 26.6667 40.2188 26.625C40.0104 26.5833 39.8125 26.5417 39.625 26.5C39.625 26.9375 39.5417 27.2812 39.375 27.5312C39.2083 27.7812 38.9896 27.9896 38.7188 28.1562C38.4688 28.3021 38.1771 28.4271 37.8438 28.5312C37.5104 28.6146 37.1771 28.7292 36.8438 28.875C36.5312 29 36.2292 29.1667 35.9375 29.375C35.6667 29.5625 35.4479 29.8333 35.2812 30.1875C35.4896 30.4167 35.75 30.5521 36.0625 30.5938C36.375 30.6146 36.6979 30.6146 37.0312 30.5938C37.3646 30.5521 37.6875 30.5312 38 30.5312C38.3333 30.5312 38.625 30.6146 38.875 30.7812L38.9062 30.8125L38.9375 30.7812C39.4375 30.7188 39.9167 30.6042 40.375 30.4375C40.8542 30.25 41.3125 30.0625 41.75 29.875C42.2083 29.6667 42.6667 29.4792 43.125 29.3125C43.6042 29.125 44.0938 28.9896 44.5938 28.9062C44.6979 29.0729 44.8333 29.1667 45 29.1875C45.1875 29.2083 45.3646 29.1979 45.5312 29.1562L45.5625 29.0938C45.6042 28.9479 45.6458 28.8229 45.6875 28.7188C45.7292 28.5938 45.7917 28.4583 45.875 28.3125C46.0208 28.0833 46.1979 27.9062 46.4062 27.7812C46.6146 27.6562 46.8333 27.5625 47.0625 27.5C47.3125 27.4375 47.5729 27.3958 47.8438 27.375C48.1146 27.3542 48.3854 27.3229 48.6562 27.2812H48.7188L48.75 27.1875C48.8333 26.9375 48.9375 26.7708 49.0625 26.6875C49.2083 26.5833 49.3542 26.5104 49.5 26.4688C49.6667 26.4271 49.8333 26.3958 50 26.375C50.1875 26.3542 50.3646 26.2917 50.5312 26.1875C50.9062 26.3125 51.2188 26.2708 51.4688 26.0625C51.7188 25.8542 51.9583 25.6354 52.1875 25.4062L52.4375 25.7188L52.5312 25.5938C52.8438 25.3021 53.0729 25.0833 53.2188 24.9375C53.3854 24.7917 53.5417 24.6667 53.6875 24.5625C53.8333 24.4375 54 24.3229 54.1875 24.2188C54.3958 24.0938 54.6771 23.9167 55.0312 23.6875C55.3229 23.5 55.6042 23.3125 55.875 23.125C56.1667 22.9375 56.4479 22.7292 56.7188 22.5C56.8229 22.5417 56.875 22.625 56.875 22.75C56.875 22.8542 56.875 22.9583 56.875 23.0625C56.8542 23.1042 56.8333 23.1667 56.8125 23.25C56.8125 23.3333 56.8333 23.3958 56.875 23.4375ZM43.9375 19.5312C43.9167 19.5104 43.8958 19.5 43.875 19.5C43.875 19.5 43.8646 19.4896 43.8438 19.4688C43.4062 19.2396 43.0417 19.1354 42.75 19.1562C42.4583 19.1562 42.1875 19.2396 41.9375 19.4062C41.7083 19.5521 41.4896 19.75 41.2812 20C41.0938 20.2292 40.8854 20.4479 40.6562 20.6562C40.4479 20.8438 40.1979 20.9896 39.9062 21.0938C39.6146 21.1979 39.2604 21.1875 38.8438 21.0625C38.7812 21.3958 38.7188 21.7292 38.6562 22.0625C38.6146 22.375 38.5833 22.6979 38.5625 23.0312C38.2083 23.1562 37.9271 23.3333 37.7188 23.5625C37.5312 23.7917 37.3646 24.0417 37.2188 24.3125C37.0938 24.5833 36.9688 24.875 36.8438 25.1875C36.7396 25.4792 36.5938 25.7604 36.4062 26.0312L36.5312 26.1875C36.6146 26.1458 36.7083 26.1771 36.8125 26.2812C36.9167 26.3854 36.9896 26.4583 37.0312 26.5C37.2604 26.1667 37.5625 25.8854 37.9375 25.6562C38.3333 25.4271 38.7292 25.2188 39.125 25.0312C39.5417 24.8229 39.9375 24.6042 40.3125 24.375C40.6875 24.1458 40.9688 23.8438 41.1562 23.4688C41.8229 23.2812 42.3229 22.9062 42.6562 22.3438C42.9896 21.7812 43.2708 21.1979 43.5 20.5938C43.5417 20.4688 43.6146 20.2917 43.7188 20.0625C43.8438 19.8125 43.9167 19.6354 43.9375 19.5312Z" fill="black"/>
<path d="M74.9375 10.4062C74.6458 10.7188 74.3229 10.8854 73.9688 10.9062C73.6146 10.9062 73.2604 10.875 72.9062 10.8125C72.5729 10.75 72.2396 10.7292 71.9062 10.75C71.5938 10.75 71.3229 10.9167 71.0938 11.25C70.7604 11.1667 70.4167 11.1562 70.0625 11.2188C69.7083 11.2604 69.3438 11.3333 68.9688 11.4375C68.5938 11.5208 68.2188 11.6042 67.8438 11.6875C67.4688 11.7708 67.0938 11.8021 66.7188 11.7812L66.1875 11.25C66.0417 11.4792 65.8333 11.625 65.5625 11.6875C65.3125 11.7292 65.0625 11.6667 64.8125 11.5C64.375 11.7917 63.9375 11.9271 63.5 11.9062C63.0625 11.8854 62.6354 11.875 62.2188 11.875C61.8021 11.8542 61.4062 11.9375 61.0312 12.125C60.6771 12.2917 60.375 12.7188 60.125 13.4062C59.9375 13.8854 59.7604 14.375 59.5938 14.875C59.4271 15.3542 59.2604 15.8333 59.0938 16.3125C58.6354 17.5625 58.1667 18.8021 57.6875 20.0312C57.2292 21.2396 56.7083 22.4375 56.125 23.625C56.0833 24.5625 56.1042 25.5104 56.1875 26.4688C56.2708 27.4271 56.3646 28.375 56.4688 29.3125C56.3854 29.5625 56.3542 29.8229 56.375 30.0938C56.4167 30.3646 56.4896 30.6354 56.5938 30.9062C56.6979 31.1771 56.8229 31.4375 56.9688 31.6875C57.1146 31.9167 57.2708 32.125 57.4375 32.3125L58 31.7812L58.7812 32.875C58.9896 32.6042 59.2292 32.3229 59.5 32.0312C59.7917 31.7188 60.0938 31.4375 60.4062 31.1875C60.7188 30.9167 61.0417 30.6979 61.375 30.5312C61.7292 30.3438 62.0833 30.2188 62.4375 30.1562C62.5833 30.0104 62.7188 29.8542 62.8438 29.6875C62.9688 29.5208 63.1042 29.3854 63.25 29.2812C63.3958 29.1562 63.5521 29.0729 63.7188 29.0312C63.9062 28.9688 64.125 28.9792 64.375 29.0625C65.0417 28.6875 65.6354 28.2188 66.1562 27.6562C66.6771 27.0729 67.1979 26.5 67.7188 25.9375C68.2396 25.3542 68.7812 24.8229 69.3438 24.3438C69.9271 23.8646 70.6042 23.5312 71.375 23.3438C70.875 24.5521 70.2396 25.7292 69.4688 26.875C68.6979 28 67.8333 29.0104 66.875 29.9062C66.625 30.1979 66.3125 30.4583 65.9375 30.6875C65.7708 30.7917 65.5938 30.9062 65.4062 31.0312C65.2188 31.1354 65.0417 31.2396 64.875 31.3438C64.3125 31.7188 63.7708 32.125 63.25 32.5625C62.7292 32.9792 62.2292 33.4479 61.75 33.9688C61.6875 33.8438 61.6042 33.7604 61.5 33.7188C61.3958 33.6771 61.2708 33.6562 61.125 33.6562C61 33.6562 60.8646 33.6667 60.7188 33.6875C60.5938 33.7083 60.4792 33.7083 60.375 33.6875C59.9792 33.9792 59.4583 34.2083 58.8125 34.375C58.1875 34.5625 57.625 34.6042 57.125 34.5C56.9792 34.4583 56.7812 34.375 56.5312 34.25C56.2812 34.1458 56.0938 34.0521 55.9688 33.9688C55.1562 33.4271 54.5417 32.7604 54.125 31.9688C53.7292 31.1562 53.5104 30.2708 53.4688 29.3125L53.2188 29.0625C53.4896 28.8125 53.6562 28.5625 53.7188 28.3125C53.8021 28.0625 53.8229 27.8125 53.7812 27.5625C53.7604 27.2917 53.7083 27.0208 53.625 26.75C53.5625 26.4583 53.5208 26.1667 53.5 25.875C53.4792 25.6875 53.4792 25.5312 53.5 25.4062C53.5417 25.2812 53.5833 25.1354 53.625 24.9688C53.7917 24.3021 53.9479 23.6562 54.0938 23.0312C54.2396 22.3854 54.3958 21.7396 54.5625 21.0938C54.9792 19.5104 55.4583 17.9479 56 16.4062C56.5625 14.8438 57.1458 13.3021 57.75 11.7812C57.4167 11.6562 57.0833 11.5833 56.75 11.5625C56.4167 11.5208 56.0729 11.5 55.7188 11.5C55.3854 11.5 55.0417 11.4896 54.6875 11.4688C54.3542 11.4479 54.0208 11.375 53.6875 11.25C53.5417 11.1875 53.4688 11.1562 53.4688 11.1562C53.4688 11.1354 53.3854 11.125 53.2188 11.125C53.1146 11.125 52.9688 11.1458 52.7812 11.1875C52.5938 11.2083 52.4062 11.2188 52.2188 11.2188C52.0312 11.2188 51.8646 11.1979 51.7188 11.1562C51.5521 11.1146 51.4583 11.0208 51.4375 10.875V10.5625C51.4583 10.2292 51.5312 10.0104 51.6562 9.90625C51.7812 9.78125 51.9375 9.70833 52.125 9.6875C52.3125 9.64583 52.5208 9.625 52.75 9.625C52.9792 9.60417 53.1979 9.53125 53.4062 9.40625C53.9896 9.53125 54.5417 9.625 55.0625 9.6875C55.5833 9.72917 56.0833 9.71875 56.5625 9.65625C57.0625 9.59375 57.5417 9.45833 58 9.25C58.4792 9.04167 58.9479 8.72917 59.4062 8.3125C59.7396 7.66667 59.9896 6.97917 60.1562 6.25C60.3229 5.5 60.5104 4.77083 60.7188 4.0625C60.9479 3.33333 61.2396 2.66667 61.5938 2.0625C61.9479 1.4375 62.4896 0.916667 63.2188 0.5C63.5521 0.458333 63.8438 0.5 64.0938 0.625C64.3438 0.75 64.5938 0.885417 64.8438 1.03125C64.7396 1.32292 64.6562 1.625 64.5938 1.9375C64.5312 2.25 64.4583 2.5625 64.375 2.875C64.3125 3.1875 64.2292 3.48958 64.125 3.78125C64.0208 4.07292 63.8646 4.34375 63.6562 4.59375C63.9271 4.69792 64.0833 4.82292 64.125 4.96875C64.1667 5.11458 64.1458 5.27083 64.0625 5.4375C63.9792 5.60417 63.875 5.78125 63.75 5.96875C63.625 6.15625 63.5521 6.32292 63.5312 6.46875C63.3021 6.48958 63.1042 6.63542 62.9375 6.90625C62.7917 7.17708 62.6354 7.38542 62.4688 7.53125C62.3021 7.88542 62.3333 8.1875 62.5625 8.4375C62.7917 8.6875 63 8.92708 63.1875 9.15625C63.375 9.21875 63.5625 9.22917 63.75 9.1875C63.9375 9.125 64.1042 9.0625 64.25 9C64.4167 8.9375 64.5729 8.90625 64.7188 8.90625C64.8646 8.90625 65 8.98958 65.125 9.15625C65.3333 8.92708 65.5417 8.83333 65.75 8.875C65.9583 8.89583 66.1667 8.94792 66.375 9.03125C66.5833 9.09375 66.7917 9.125 67 9.125C67.2083 9.10417 67.4062 8.9375 67.5938 8.625C67.8438 8.5 68.0729 8.46875 68.2812 8.53125C68.5104 8.59375 68.7188 8.67708 68.9062 8.78125C69.0938 8.86458 69.2708 8.9375 69.4375 9C69.625 9.04167 69.8125 9 70 8.875C70.3125 8.91667 70.6562 8.92708 71.0312 8.90625C71.4271 8.88542 71.8125 8.84375 72.1875 8.78125C72.5833 8.71875 72.9688 8.64583 73.3438 8.5625C73.7396 8.45833 74.0938 8.375 74.4062 8.3125C74.7188 8.5 74.9062 8.66667 74.9688 8.8125C75.0312 8.95833 75.0417 9.10417 75 9.25C74.9792 9.39583 74.9375 9.5625 74.875 9.75C74.8333 9.91667 74.8542 10.1354 74.9375 10.4062Z" fill="black"/>
<path d="M101.062 10.4062C100.771 10.7188 100.448 10.8854 100.094 10.9062C99.7396 10.9062 99.3854 10.875 99.0312 10.8125C98.6979 10.75 98.3646 10.7292 98.0312 10.75C97.7188 10.75 97.4479 10.9167 97.2188 11.25C96.8854 11.1667 96.5417 11.1562 96.1875 11.2188C95.8333 11.2604 95.4688 11.3333 95.0938 11.4375C94.7188 11.5208 94.3438 11.6042 93.9688 11.6875C93.5938 11.7708 93.2188 11.8021 92.8438 11.7812L92.3125 11.25C92.1667 11.4792 91.9583 11.625 91.6875 11.6875C91.4375 11.7292 91.1875 11.6667 90.9375 11.5C90.5 11.7917 90.0625 11.9271 89.625 11.9062C89.1875 11.8854 88.7604 11.875 88.3438 11.875C87.9271 11.8542 87.5312 11.9375 87.1562 12.125C86.8021 12.2917 86.5 12.7188 86.25 13.4062C86.0625 13.8854 85.8854 14.375 85.7188 14.875C85.5521 15.3542 85.3854 15.8333 85.2188 16.3125C84.7604 17.5625 84.2917 18.8021 83.8125 20.0312C83.3542 21.2396 82.8333 22.4375 82.25 23.625C82.2083 24.5625 82.2292 25.5104 82.3125 26.4688C82.3958 27.4271 82.4896 28.375 82.5938 29.3125C82.5104 29.5625 82.4792 29.8229 82.5 30.0938C82.5417 30.3646 82.6146 30.6354 82.7188 30.9062C82.8229 31.1771 82.9479 31.4375 83.0938 31.6875C83.2396 31.9167 83.3958 32.125 83.5625 32.3125L84.125 31.7812L84.9062 32.875C85.1146 32.6042 85.3542 32.3229 85.625 32.0312C85.9167 31.7188 86.2188 31.4375 86.5312 31.1875C86.8438 30.9167 87.1667 30.6979 87.5 30.5312C87.8542 30.3438 88.2083 30.2188 88.5625 30.1562C88.7083 30.0104 88.8438 29.8542 88.9688 29.6875C89.0938 29.5208 89.2292 29.3854 89.375 29.2812C89.5208 29.1562 89.6771 29.0729 89.8438 29.0312C90.0312 28.9688 90.25 28.9792 90.5 29.0625C91.1667 28.6875 91.7604 28.2188 92.2812 27.6562C92.8021 27.0729 93.3229 26.5 93.8438 25.9375C94.3646 25.3542 94.9062 24.8229 95.4688 24.3438C96.0521 23.8646 96.7292 23.5312 97.5 23.3438C97 24.5521 96.3646 25.7292 95.5938 26.875C94.8229 28 93.9583 29.0104 93 29.9062C92.75 30.1979 92.4375 30.4583 92.0625 30.6875C91.8958 30.7917 91.7188 30.9062 91.5312 31.0312C91.3438 31.1354 91.1667 31.2396 91 31.3438C90.4375 31.7188 89.8958 32.125 89.375 32.5625C88.8542 32.9792 88.3542 33.4479 87.875 33.9688C87.8125 33.8438 87.7292 33.7604 87.625 33.7188C87.5208 33.6771 87.3958 33.6562 87.25 33.6562C87.125 33.6562 86.9896 33.6667 86.8438 33.6875C86.7188 33.7083 86.6042 33.7083 86.5 33.6875C86.1042 33.9792 85.5833 34.2083 84.9375 34.375C84.3125 34.5625 83.75 34.6042 83.25 34.5C83.1042 34.4583 82.9062 34.375 82.6562 34.25C82.4062 34.1458 82.2188 34.0521 82.0938 33.9688C81.2812 33.4271 80.6667 32.7604 80.25 31.9688C79.8542 31.1562 79.6354 30.2708 79.5938 29.3125L79.3438 29.0625C79.6146 28.8125 79.7812 28.5625 79.8438 28.3125C79.9271 28.0625 79.9479 27.8125 79.9062 27.5625C79.8854 27.2917 79.8333 27.0208 79.75 26.75C79.6875 26.4583 79.6458 26.1667 79.625 25.875C79.6042 25.6875 79.6042 25.5312 79.625 25.4062C79.6667 25.2812 79.7083 25.1354 79.75 24.9688C79.9167 24.3021 80.0729 23.6562 80.2188 23.0312C80.3646 22.3854 80.5208 21.7396 80.6875 21.0938C81.1042 19.5104 81.5833 17.9479 82.125 16.4062C82.6875 14.8438 83.2708 13.3021 83.875 11.7812C83.5417 11.6562 83.2083 11.5833 82.875 11.5625C82.5417 11.5208 82.1979 11.5 81.8438 11.5C81.5104 11.5 81.1667 11.4896 80.8125 11.4688C80.4792 11.4479 80.1458 11.375 79.8125 11.25C79.6667 11.1875 79.5938 11.1562 79.5938 11.1562C79.5938 11.1354 79.5104 11.125 79.3438 11.125C79.2396 11.125 79.0938 11.1458 78.9062 11.1875C78.7188 11.2083 78.5312 11.2188 78.3438 11.2188C78.1562 11.2188 77.9896 11.1979 77.8438 11.1562C77.6771 11.1146 77.5833 11.0208 77.5625 10.875V10.5625C77.5833 10.2292 77.6562 10.0104 77.7812 9.90625C77.9062 9.78125 78.0625 9.70833 78.25 9.6875C78.4375 9.64583 78.6458 9.625 78.875 9.625C79.1042 9.60417 79.3229 9.53125 79.5312 9.40625C80.1146 9.53125 80.6667 9.625 81.1875 9.6875C81.7083 9.72917 82.2083 9.71875 82.6875 9.65625C83.1875 9.59375 83.6667 9.45833 84.125 9.25C84.6042 9.04167 85.0729 8.72917 85.5312 8.3125C85.8646 7.66667 86.1146 6.97917 86.2812 6.25C86.4479 5.5 86.6354 4.77083 86.8438 4.0625C87.0729 3.33333 87.3646 2.66667 87.7188 2.0625C88.0729 1.4375 88.6146 0.916667 89.3438 0.5C89.6771 0.458333 89.9688 0.5 90.2188 0.625C90.4688 0.75 90.7188 0.885417 90.9688 1.03125C90.8646 1.32292 90.7812 1.625 90.7188 1.9375C90.6562 2.25 90.5833 2.5625 90.5 2.875C90.4375 3.1875 90.3542 3.48958 90.25 3.78125C90.1458 4.07292 89.9896 4.34375 89.7812 4.59375C90.0521 4.69792 90.2083 4.82292 90.25 4.96875C90.2917 5.11458 90.2708 5.27083 90.1875 5.4375C90.1042 5.60417 90 5.78125 89.875 5.96875C89.75 6.15625 89.6771 6.32292 89.6562 6.46875C89.4271 6.48958 89.2292 6.63542 89.0625 6.90625C88.9167 7.17708 88.7604 7.38542 88.5938 7.53125C88.4271 7.88542 88.4583 8.1875 88.6875 8.4375C88.9167 8.6875 89.125 8.92708 89.3125 9.15625C89.5 9.21875 89.6875 9.22917 89.875 9.1875C90.0625 9.125 90.2292 9.0625 90.375 9C90.5417 8.9375 90.6979 8.90625 90.8438 8.90625C90.9896 8.90625 91.125 8.98958 91.25 9.15625C91.4583 8.92708 91.6667 8.83333 91.875 8.875C92.0833 8.89583 92.2917 8.94792 92.5 9.03125C92.7083 9.09375 92.9167 9.125 93.125 9.125C93.3333 9.10417 93.5312 8.9375 93.7188 8.625C93.9688 8.5 94.1979 8.46875 94.4062 8.53125C94.6354 8.59375 94.8438 8.67708 95.0312 8.78125C95.2188 8.86458 95.3958 8.9375 95.5625 9C95.75 9.04167 95.9375 9 96.125 8.875C96.4375 8.91667 96.7812 8.92708 97.1562 8.90625C97.5521 8.88542 97.9375 8.84375 98.3125 8.78125C98.7083 8.71875 99.0938 8.64583 99.4688 8.5625C99.8646 8.45833 100.219 8.375 100.531 8.3125C100.844 8.5 101.031 8.66667 101.094 8.8125C101.156 8.95833 101.167 9.10417 101.125 9.25C101.104 9.39583 101.062 9.5625 101 9.75C100.958 9.91667 100.979 10.1354 101.062 10.4062Z" fill="black"/>
<path d="M113.562 29.2812C113.125 30.2188 112.708 30.9583 112.312 31.5C111.917 32.0417 111.469 32.5 110.969 32.875C110.49 33.2292 109.906 33.5625 109.219 33.875C108.531 34.1875 107.667 34.5833 106.625 35.0625C106.208 34.9583 105.802 34.9271 105.406 34.9688C105.01 35.0312 104.625 35.0729 104.25 35.0938C103.896 35.1146 103.552 35.0729 103.219 34.9688C102.885 34.8854 102.583 34.6354 102.312 34.2188H101.844C101.865 33.9479 101.833 33.6562 101.75 33.3438C101.688 33.0521 101.49 32.8854 101.156 32.8438C101.365 32.6146 101.5 32.3646 101.562 32.0938C101.625 31.8021 101.667 31.5104 101.688 31.2188C101.729 30.9271 101.781 30.6458 101.844 30.375C101.906 30.1042 102.062 29.875 102.312 29.6875C102.062 29.3542 101.958 29.0208 102 28.6875C102.062 28.3333 102.177 27.9896 102.344 27.6562C102.531 27.3021 102.719 26.9583 102.906 26.625C103.115 26.2708 103.219 25.9167 103.219 25.5625C103.031 25.4375 102.854 25.2708 102.688 25.0625C102.542 24.8333 102.333 24.7708 102.062 24.875C101.5 25.4167 100.938 25.9375 100.375 26.4375C99.8125 26.9167 99.2604 27.4167 98.7188 27.9375C98.1979 28.4583 97.6979 29.0104 97.2188 29.5938C96.7604 30.1562 96.3333 30.7812 95.9375 31.4688C95.5833 31.5312 95.3125 31.6979 95.125 31.9688C94.9375 32.2396 94.7708 32.5312 94.625 32.8438C94.4792 33.1354 94.3125 33.4167 94.125 33.6875C93.9583 33.9583 93.7188 34.1354 93.4062 34.2188C93.3021 34.5521 93.1979 34.8854 93.0938 35.2188C92.9688 35.5729 92.8542 35.9167 92.75 36.25C92.625 36.1875 92.4688 36.1354 92.2812 36.0938C92.0729 36.0521 91.875 36 91.6875 35.9375C91.5 35.875 91.3333 35.7917 91.1875 35.6875C91.0417 35.6042 90.9479 35.4896 90.9062 35.3438C90.8854 35.3021 90.8854 35.2083 90.9062 35.0625C90.9062 34.9375 90.9062 34.8542 90.9062 34.8125C90.9479 34.2292 91.1042 33.6771 91.375 33.1562C91.625 32.6562 91.8958 32.1667 92.1875 31.6875C92.4792 31.1875 92.75 30.6875 93 30.1875C93.25 29.6875 93.3854 29.1354 93.4062 28.5312C93.7188 28.5312 93.9167 28.4375 94 28.25C94.1042 28.0625 94.1771 27.8646 94.2188 27.6562C94.2812 27.4479 94.3542 27.2604 94.4375 27.0938C94.5208 26.9271 94.7083 26.8646 95 26.9062C94.8125 26.6562 94.7292 26.3854 94.75 26.0938C94.7917 25.7812 94.875 25.4792 95 25.1875C95.125 24.875 95.2812 24.5833 95.4688 24.3125C95.6562 24.0208 95.8125 23.7604 95.9375 23.5312C95.9167 23.2396 95.9375 22.9479 96 22.6562C96.0833 22.3646 96.2188 22.1042 96.4062 21.875C96.5938 21.6458 96.7604 21.4271 96.9062 21.2188C97.0521 21.0104 97.1979 20.7917 97.3438 20.5625C97.4271 20.4583 97.4896 20.3438 97.5312 20.2188C97.5938 20.0938 97.6562 19.9792 97.7188 19.875C97.9062 19.6042 98.0312 19.3229 98.0938 19.0312C98.1562 18.7188 98.2188 18.4167 98.2812 18.125C98.3646 17.8125 98.4688 17.5417 98.5938 17.3125C98.7396 17.0625 98.9896 16.8646 99.3438 16.7188C99.3438 16.4896 99.375 16.2812 99.4375 16.0938C99.5208 15.8854 99.6042 15.6771 99.6875 15.4688C99.7708 15.2604 99.8438 15.0625 99.9062 14.875C99.9896 14.6667 100.031 14.4479 100.031 14.2188C100.094 14.1146 100.188 14.0104 100.312 13.9062C100.438 13.8021 100.552 13.6979 100.656 13.5938C100.76 13.4896 100.844 13.3854 100.906 13.2812C100.969 13.1562 100.979 13.0104 100.938 12.8438C100.958 12.5729 100.948 12.2917 100.906 12C100.885 11.7083 100.969 11.4583 101.156 11.25C101.115 10.9792 101.146 10.7604 101.25 10.5938C101.375 10.4271 101.521 10.2812 101.688 10.1562C101.854 10.0312 102.031 9.91667 102.219 9.8125C102.427 9.6875 102.604 9.55208 102.75 9.40625C102.646 9.26042 102.625 9.09375 102.688 8.90625C102.75 8.71875 102.833 8.54167 102.938 8.375C103.062 8.1875 103.198 8.01042 103.344 7.84375C103.49 7.67708 103.594 7.53125 103.656 7.40625C103.781 7.15625 103.885 6.90625 103.969 6.65625C104.073 6.40625 104.188 6.17708 104.312 5.96875C104.438 5.73958 104.583 5.53125 104.75 5.34375C104.938 5.15625 105.177 5 105.469 4.875C105.385 4.45833 105.406 4.13542 105.531 3.90625C105.677 3.67708 105.865 3.47917 106.094 3.3125C106.344 3.14583 106.604 2.98958 106.875 2.84375C107.146 2.67708 107.365 2.44792 107.531 2.15625C107.76 2.09375 108.01 2.03125 108.281 1.96875C108.552 1.88542 108.823 1.83333 109.094 1.8125C109.365 1.77083 109.625 1.77083 109.875 1.8125C110.125 1.85417 110.354 1.96875 110.562 2.15625C110.646 2.23958 110.698 2.29167 110.719 2.3125C110.74 2.33333 110.75 2.35417 110.75 2.375C110.75 2.375 110.75 2.39583 110.75 2.4375C110.771 2.45833 110.823 2.51042 110.906 2.59375C110.99 2.67708 111.073 2.76042 111.156 2.84375C111.24 2.90625 111.323 2.98958 111.406 3.09375C111.427 3.23958 111.427 3.40625 111.406 3.59375C111.385 3.76042 111.375 3.92708 111.375 4.09375C111.375 4.26042 111.396 4.41667 111.438 4.5625C111.5 4.70833 111.635 4.8125 111.844 4.875C111.677 5.47917 111.604 6.125 111.625 6.8125C111.646 7.5 111.656 8.19792 111.656 8.90625C111.656 9.59375 111.604 10.2604 111.5 10.9062C111.396 11.5521 111.125 12.125 110.688 12.625L110.469 14.2188C110.198 14.2396 110.01 14.3333 109.906 14.5C109.802 14.6458 109.729 14.8229 109.688 15.0312C109.646 15.2396 109.604 15.4583 109.562 15.6875C109.542 15.9167 109.469 16.1042 109.344 16.25C109.177 16.4583 109.01 16.6979 108.844 16.9688C108.677 17.2396 108.5 17.4896 108.312 17.7188C108.125 17.9479 107.906 18.1458 107.656 18.3125C107.427 18.4583 107.156 18.5312 106.844 18.5312C106.802 18.6562 106.719 18.8021 106.594 18.9688C106.469 19.1354 106.323 19.3021 106.156 19.4688C106.01 19.6146 105.854 19.75 105.688 19.875C105.521 19.9792 105.375 20.0521 105.25 20.0938C105.083 20.1562 104.927 20.2083 104.781 20.25C104.656 20.2708 104.51 20.3333 104.344 20.4375C104.156 20.5417 103.969 20.6771 103.781 20.8438C103.594 21.0104 103.396 21.1562 103.188 21.2812C102.979 21.4062 102.76 21.5 102.531 21.5625C102.302 21.6042 102.073 21.5729 101.844 21.4688C101.573 21.8021 101.26 22.0104 100.906 22.0938C100.573 22.1562 100.24 22.2083 99.9062 22.25C99.5938 22.2708 99.2917 22.3438 99 22.4688C98.7292 22.5729 98.5208 22.8229 98.375 23.2188C98.3333 23.2604 98.2917 23.3542 98.25 23.5C98.2292 23.625 98.2188 23.7083 98.2188 23.75C98.2188 23.9792 98.2083 24.2604 98.1875 24.5938C98.1667 24.9271 98.25 25.1771 98.4375 25.3438C99.1875 24.9896 99.8958 24.5729 100.562 24.0938C101.25 23.5938 101.979 23.1771 102.75 22.8438L102.969 23.0938C103.031 22.6354 103.229 22.4062 103.562 22.4062C103.896 22.3854 104.24 22.3854 104.594 22.4062H104.812C104.854 22.4062 104.885 22.4062 104.906 22.4062C104.948 22.3854 104.99 22.375 105.031 22.375C105.427 22.375 105.688 22.5312 105.812 22.8438C105.938 23.1562 106.052 23.4583 106.156 23.75C105.927 24 105.74 24.3021 105.594 24.6562C105.469 24.9896 105.344 25.3438 105.219 25.7188C105.115 26.0938 104.99 26.4688 104.844 26.8438C104.719 27.1979 104.542 27.5312 104.312 27.8438C104.5 27.9479 104.583 28.0625 104.562 28.1875C104.542 28.3125 104.5 28.4375 104.438 28.5625C104.396 28.6875 104.385 28.8125 104.406 28.9375C104.427 29.0417 104.562 29.125 104.812 29.1875C104.604 29.3333 104.458 29.5104 104.375 29.7188C104.312 29.9062 104.25 30.1146 104.188 30.3438C104.146 30.5521 104.094 30.7604 104.031 30.9688C103.969 31.1562 103.844 31.3229 103.656 31.4688C103.74 31.6562 103.802 31.8438 103.844 32.0312C103.906 32.1979 103.917 32.3958 103.875 32.625C104.167 33 104.458 33.2083 104.75 33.25C105.062 33.2917 105.365 33.2708 105.656 33.1875C105.948 33.1042 106.25 33.0208 106.562 32.9375C106.875 32.8542 107.198 32.875 107.531 33C108.115 32.6042 108.521 32.3646 108.75 32.2812C108.979 32.1979 109.156 32.1354 109.281 32.0938C109.427 32.0521 109.594 31.9583 109.781 31.8125C109.969 31.6667 110.323 31.3438 110.844 30.8438C111.365 30.6979 111.823 30.4583 112.219 30.125C112.635 29.7917 113.083 29.5104 113.562 29.2812ZM108.906 3.75C108.927 4 108.865 4.19792 108.719 4.34375C108.594 4.46875 108.448 4.59375 108.281 4.71875C108.115 4.82292 107.948 4.9375 107.781 5.0625C107.635 5.16667 107.552 5.33333 107.531 5.5625C107.26 5.6875 107.083 5.85417 107 6.0625C106.917 6.27083 106.844 6.48958 106.781 6.71875C106.74 6.92708 106.667 7.13542 106.562 7.34375C106.458 7.55208 106.25 7.71875 105.938 7.84375L106.156 8.0625C105.469 8.6875 104.917 9.42708 104.5 10.2812C104.104 11.1354 103.75 11.9896 103.438 12.8438C103.146 13.1562 102.938 13.5104 102.812 13.9062C102.688 14.2812 102.562 14.6667 102.438 15.0625C102.333 15.4375 102.188 15.8021 102 16.1562C101.833 16.4896 101.552 16.75 101.156 16.9375C101.365 17.2083 101.438 17.4583 101.375 17.6875C101.333 17.9167 101.229 18.1354 101.062 18.3438C100.896 18.5521 100.719 18.7604 100.531 18.9688C100.365 19.1771 100.271 19.4062 100.25 19.6562C100.646 19.7396 101.031 19.7292 101.406 19.625C101.802 19.5208 102.188 19.375 102.562 19.1875C102.938 18.9792 103.292 18.75 103.625 18.5C103.958 18.25 104.281 18.0312 104.594 17.8438L104.812 18.0625C105.75 17.5417 106.521 16.9167 107.125 16.1875C107.75 15.4375 108.344 14.625 108.906 13.75C108.719 13.6042 108.635 13.4479 108.656 13.2812C108.698 13.1771 108.75 13.0521 108.812 12.9062C108.875 12.7604 108.927 12.6354 108.969 12.5312C109.177 11.9062 109.333 11.3229 109.438 10.7812C109.708 9.65625 109.896 8.53125 110 7.40625C110.125 6.26042 110.208 5.11458 110.25 3.96875L108.906 3.75Z" fill="black"/>
<path d="M120.531 13.5C120.156 13.6458 119.948 13.8646 119.906 14.1562C119.865 14.4479 119.844 14.75 119.844 15.0625C119.865 15.375 119.854 15.6667 119.812 15.9375C119.771 16.2083 119.562 16.3854 119.188 16.4688C119.042 16.2188 118.854 15.9896 118.625 15.7812C118.417 15.5521 118.208 15.3333 118 15.125C117.792 14.8958 117.625 14.6562 117.5 14.4062C117.375 14.1562 117.333 13.8542 117.375 13.5L118.938 11.6875C119.188 11.7708 119.385 11.875 119.531 12C119.677 12.125 119.802 12.2708 119.906 12.4375C120.01 12.6042 120.104 12.7812 120.188 12.9688C120.292 13.1354 120.406 13.3125 120.531 13.5ZM126.594 27.5C126.615 27.9583 126.573 28.2812 126.469 28.4688C126.385 28.6562 126.281 28.8125 126.156 28.9375C126.031 29.0417 125.917 29.1667 125.812 29.3125C125.729 29.4375 125.688 29.6667 125.688 30C125.208 30.5208 124.823 30.9062 124.531 31.1562C124.24 31.3854 123.958 31.5833 123.688 31.75C123.417 31.8958 123.115 32.0625 122.781 32.25C122.448 32.4375 121.99 32.7292 121.406 33.125L121.188 33.1562C121.125 33.4688 121.01 33.6458 120.844 33.6875C120.698 33.75 120.521 33.7812 120.312 33.7812C120.125 33.7812 119.938 33.8021 119.75 33.8438C119.562 33.8854 119.406 34.0625 119.281 34.375C118.927 34.4792 118.625 34.5208 118.375 34.5C118.125 34.4792 117.802 34.4688 117.406 34.4688C117.281 34.4688 117.115 34.4583 116.906 34.4375C116.719 34.4167 116.562 34.4271 116.438 34.4688C116.354 34.4896 116.26 34.5417 116.156 34.625C116.073 34.7292 115.979 34.8125 115.875 34.875C115.771 34.9375 115.667 34.9583 115.562 34.9375C115.458 34.9375 115.365 34.8542 115.281 34.6875C115.031 34.75 114.802 34.75 114.594 34.6875C114.385 34.625 114.188 34.5208 114 34.375C113.812 34.2292 113.635 34.0521 113.469 33.8438C113.323 33.6562 113.177 33.4792 113.031 33.3125C112.927 33.1875 112.812 33.0729 112.688 32.9688C112.562 32.8646 112.448 32.7604 112.344 32.6562C112.115 32.4271 111.948 32.1354 111.844 31.7812C111.74 31.4271 111.677 31.0625 111.656 30.6875C111.635 30.3125 111.646 29.9375 111.688 29.5625C111.729 29.1875 111.792 28.8542 111.875 28.5625C112.062 28.375 112.198 28.1667 112.281 27.9375C112.344 27.6875 112.396 27.4375 112.438 27.1875C112.5 26.9375 112.562 26.6979 112.625 26.4688C112.708 26.2188 112.844 26 113.031 25.8125C113.031 25.5417 113.073 25.2917 113.156 25.0625C113.26 24.8333 113.385 24.6146 113.531 24.4062C113.698 24.1979 113.875 24.0104 114.062 23.8438C114.271 23.6562 114.458 23.4792 114.625 23.3125C114.792 23.3125 114.958 23.3125 115.125 23.3125C115.292 23.2917 115.448 23.3021 115.594 23.3438C115.74 23.3646 115.865 23.4271 115.969 23.5312C116.073 23.6146 116.156 23.7604 116.219 23.9688C116.365 24.5312 116.323 24.9896 116.094 25.3438C115.885 25.6771 115.646 26 115.375 26.3125C115.104 26.625 114.885 26.9479 114.719 27.2812C114.552 27.6146 114.594 28.0417 114.844 28.5625C114.615 28.5625 114.458 28.625 114.375 28.75C114.312 28.875 114.26 29.0208 114.219 29.1875C114.198 29.3333 114.156 29.4792 114.094 29.625C114.031 29.7708 113.906 29.875 113.719 29.9375C113.844 30.0625 113.906 30.2812 113.906 30.5938C113.927 30.9062 113.958 31.2083 114 31.5C114.062 31.7708 114.156 31.9896 114.281 32.1562C114.427 32.3229 114.688 32.3333 115.062 32.1875C115.333 32.4167 115.656 32.5104 116.031 32.4688C116.427 32.4271 116.792 32.4167 117.125 32.4375C117.417 32.25 117.667 32.1562 117.875 32.1562C118.083 32.1354 118.281 32.1562 118.469 32.2188C118.656 32.2604 118.854 32.3021 119.062 32.3438C119.271 32.3854 119.521 32.3542 119.812 32.25C119.896 31.8958 120.042 31.6875 120.25 31.625C120.458 31.5625 120.667 31.5312 120.875 31.5312C121.083 31.5104 121.271 31.4688 121.438 31.4062C121.625 31.3438 121.75 31.1354 121.812 30.7812C121.979 30.5729 122.177 30.4583 122.406 30.4375C122.635 30.3958 122.865 30.3542 123.094 30.3125C123.344 30.2708 123.562 30.1875 123.75 30.0625C123.958 29.9167 124.104 29.6458 124.188 29.25C124.542 28.9792 124.792 28.7812 124.938 28.6562C125.104 28.5104 125.24 28.3958 125.344 28.3125C125.448 28.2292 125.583 28.1354 125.75 28.0312C125.917 27.9271 126.198 27.75 126.594 27.5Z" fill="black"/>
<path d="M141.156 31.875C141.177 32.125 141.135 32.3125 141.031 32.4375C140.927 32.5625 140.781 32.6562 140.594 32.7188C140.427 32.7812 140.24 32.8333 140.031 32.875C139.823 32.8958 139.646 32.9479 139.5 33.0312C138.896 32.9688 138.312 32.8854 137.75 32.7812C137.188 32.6562 136.667 32.4792 136.188 32.25C135.708 32 135.271 31.6771 134.875 31.2812C134.5 30.8854 134.177 30.3854 133.906 29.7812C134.177 29.3438 134.271 28.8646 134.188 28.3438C134.104 27.8021 134.021 27.2812 133.938 26.7812C133.875 26.2812 133.885 25.8229 133.969 25.4062C134.073 24.9896 134.438 24.6562 135.062 24.4062C135.021 24.1771 135.021 23.9271 135.062 23.6562C135.125 23.3854 135.052 23.1562 134.844 22.9688C134.115 23.2188 133.479 23.5729 132.938 24.0312C132.396 24.4896 131.875 24.9896 131.375 25.5312C130.896 26.0729 130.406 26.625 129.906 27.1875C129.427 27.7292 128.896 28.2083 128.312 28.625C128.042 28.6458 127.75 28.6354 127.438 28.5938C127.146 28.5312 126.896 28.6146 126.688 28.8438C126.708 28.9896 126.76 29.1146 126.844 29.2188C126.927 29.3229 126.99 29.4271 127.031 29.5312C127.094 29.6354 127.125 29.75 127.125 29.875C127.125 29.9792 127.052 30.1042 126.906 30.25C126.698 30.4583 126.469 30.6354 126.219 30.7812C125.99 30.9062 125.76 31.0521 125.531 31.2188C125.323 31.3646 125.146 31.5417 125 31.75C124.854 31.9583 124.781 32.2396 124.781 32.5938C124.656 32.5312 124.542 32.5208 124.438 32.5625C124.333 32.5833 124.24 32.6354 124.156 32.7188C124.052 32.8021 123.958 32.8958 123.875 33C123.792 33.1042 123.708 33.1875 123.625 33.25C123.583 33.3542 123.594 33.4375 123.656 33.5C123.719 33.5833 123.792 33.6667 123.875 33.75C123.792 33.9792 123.688 34.1146 123.562 34.1562C123.417 34.2188 123.271 34.2292 123.125 34.1875C122.958 34.1458 122.802 34.0729 122.656 33.9688C122.49 33.8854 122.344 33.8125 122.219 33.75C122.156 33.4792 122.115 33.1667 122.094 32.8125C122.073 32.4583 122.083 32.1146 122.125 31.7812C122.167 31.4271 122.25 31.0938 122.375 30.7812C122.5 30.4688 122.688 30.2083 122.938 30C123.021 29.9375 123.073 29.9062 123.094 29.9062C123.115 29.8854 123.125 29.875 123.125 29.875C123.125 29.875 123.135 29.875 123.156 29.875C123.177 29.8542 123.219 29.8125 123.281 29.75C123.448 29.5625 123.562 29.3646 123.625 29.1562C123.688 28.9271 123.74 28.6979 123.781 28.4688C123.823 28.2396 123.885 28.0208 123.969 27.8125C124.031 27.5833 124.156 27.3854 124.344 27.2188C124.26 26.8854 124.26 26.5938 124.344 26.3438C124.448 26.0729 124.573 25.8229 124.719 25.5938C124.885 25.3438 125.042 25.1042 125.188 24.875C125.354 24.625 125.458 24.3542 125.5 24.0625C125.521 23.9583 125.521 23.8646 125.5 23.7812C125.5 23.6771 125.5 23.5729 125.5 23.4688C125.458 23.1354 125.49 22.8854 125.594 22.7188C125.719 22.5312 125.865 22.3854 126.031 22.2812C126.219 22.1562 126.406 22.0312 126.594 21.9062C126.802 21.7812 126.979 21.5938 127.125 21.3438C127.729 21.6354 128.083 22.0312 128.188 22.5312C128.312 23.0104 128.354 23.5521 128.312 24.1562C127.958 24.3854 127.688 24.7083 127.5 25.125C127.312 25.5208 127.188 25.9062 127.125 26.2812C127.167 26.4062 127.219 26.4792 127.281 26.5C127.365 26.5 127.448 26.4896 127.531 26.4688C127.635 26.4271 127.729 26.3854 127.812 26.3438C127.896 26.3021 127.979 26.2812 128.062 26.2812C128.812 25.7604 129.552 25.1771 130.281 24.5312C131.031 23.8854 131.615 23.1458 132.031 22.3125C132.635 22.0208 133.208 21.6875 133.75 21.3125C134.292 20.9167 134.885 20.625 135.531 20.4375L136.25 19.7188C136.354 19.8854 136.479 19.9271 136.625 19.8438C136.771 19.7396 136.917 19.625 137.062 19.5C137.208 19.375 137.344 19.3021 137.469 19.2812C137.615 19.2604 137.75 19.4062 137.875 19.7188C138.083 20.2604 138.135 20.7917 138.031 21.3125C137.927 21.8125 137.76 22.3125 137.531 22.8125C137.323 23.2917 137.104 23.7812 136.875 24.2812C136.646 24.7812 136.51 25.2917 136.469 25.8125C136.469 25.9375 136.469 26.0729 136.469 26.2188C136.469 26.3438 136.458 26.4792 136.438 26.625C136.396 27.0625 136.333 27.5417 136.25 28.0625C136.188 28.5625 136.219 29.0208 136.344 29.4375C136.448 29.8125 136.667 30.1458 137 30.4375C137.333 30.7292 137.625 31.0208 137.875 31.3125C138.021 31.2917 138.167 31.3021 138.312 31.3438C138.458 31.3854 138.594 31.4271 138.719 31.4688C138.865 31.5104 139 31.5312 139.125 31.5312C139.25 31.5104 139.375 31.4375 139.5 31.3125C139.646 31.25 139.781 31.2604 139.906 31.3438C140.052 31.4062 140.188 31.4896 140.312 31.5938C140.438 31.6979 140.562 31.7917 140.688 31.875C140.833 31.9375 140.99 31.9375 141.156 31.875Z" fill="black"/>
<path d="M165.312 24.0625C165.083 24.3542 164.906 24.6771 164.781 25.0312C164.656 25.3854 164.5 25.7188 164.312 26.0312C164.146 26.3438 163.927 26.6042 163.656 26.8125C163.406 27.0208 163.052 27.1146 162.594 27.0938C162.26 27.2188 162.01 27.4479 161.844 27.7812C161.698 28.0938 161.552 28.4167 161.406 28.75C161.26 29.0625 161.073 29.3229 160.844 29.5312C160.615 29.7188 160.271 29.7396 159.812 29.5938C159.229 29.8438 158.698 30.1771 158.219 30.5938C157.76 30.9896 157.323 31.4062 156.906 31.8438C156.76 31.9896 156.594 32.1771 156.406 32.4062C156.219 32.6146 156.042 32.7708 155.875 32.875C155.729 32.9583 155.583 32.9688 155.438 32.9062C155.292 32.8438 155.156 32.7812 155.031 32.7188C154.906 32.6354 154.781 32.5938 154.656 32.5938C154.552 32.5938 154.458 32.6875 154.375 32.875C154.521 33.1667 154.552 33.3646 154.469 33.4688C154.385 33.5938 154.25 33.6875 154.062 33.75C153.875 33.8125 153.677 33.8646 153.469 33.9062C153.26 33.9479 153.094 34.0208 152.969 34.125C152.719 34.3542 152.542 34.6354 152.438 34.9688C152.333 35.3021 152.24 35.6354 152.156 35.9688C152.073 36.3021 151.948 36.6146 151.781 36.9062C151.635 37.2188 151.385 37.4583 151.031 37.625C151.24 37.7708 151.323 37.9167 151.281 38.0625C151.26 38.2083 151.208 38.3542 151.125 38.5C151.042 38.6667 150.979 38.8229 150.938 38.9688C150.917 39.1146 151 39.2604 151.188 39.4062C150.875 39.8021 150.594 40.2292 150.344 40.6875C150.115 41.1458 149.885 41.6042 149.656 42.0625C149.427 42.5417 149.177 43 148.906 43.4375C148.656 43.8958 148.333 44.3021 147.938 44.6562L148.031 45.4062C147.719 45.3229 147.521 45.3333 147.438 45.4375C147.375 45.5417 147.344 45.6875 147.344 45.875C147.344 46.0625 147.344 46.25 147.344 46.4375C147.365 46.6458 147.302 46.8021 147.156 46.9062C147.094 46.9896 147.021 47.0521 146.938 47.0938C146.875 47.1354 146.812 47.1875 146.75 47.25C146.083 47.75 145.625 48.3854 145.375 49.1562C145.333 49.2812 145.302 49.4062 145.281 49.5312C145.26 49.6562 145.229 49.7917 145.188 49.9375C145.083 50.2292 144.917 50.5312 144.688 50.8438C144.458 51.1562 144.208 51.4792 143.938 51.8125C143.667 52.1458 143.406 52.4896 143.156 52.8438C142.906 53.2188 142.708 53.5938 142.562 53.9688C142.229 53.9271 141.969 53.9583 141.781 54.0625C141.573 54.1875 141.406 54.3438 141.281 54.5312C141.156 54.7396 141.052 54.9583 140.969 55.1875C140.885 55.4167 140.781 55.6146 140.656 55.7812C140.51 55.9688 140.333 56.1042 140.125 56.1875C139.896 56.2917 139.604 56.2917 139.25 56.1875L137.844 57.4688C137.594 57.3229 137.354 57.2917 137.125 57.375C136.875 57.4583 136.635 57.5729 136.406 57.7188C136.156 57.8646 135.917 57.9792 135.688 58.0625C135.438 58.1458 135.177 58.1146 134.906 57.9688C134.76 58.1354 134.635 58.2188 134.531 58.2188C134.427 58.2396 134.302 58.1562 134.156 57.9688L133.688 58.4688C133.438 58.2604 133.135 58.0625 132.781 57.875C132.406 57.7083 132.062 57.5104 131.75 57.2812C131.438 57.0729 131.188 56.8229 131 56.5312C130.812 56.2604 130.781 55.9062 130.906 55.4688C130.865 55.3438 130.802 55.2083 130.719 55.0625C130.615 54.9167 130.531 54.7604 130.469 54.5938C130.406 54.4479 130.365 54.2917 130.344 54.125C130.323 53.9792 130.365 53.8438 130.469 53.7188C130.281 53.3646 130.219 53 130.281 52.625C130.323 52.2708 130.396 51.9167 130.5 51.5625C130.604 51.2083 130.688 50.8542 130.75 50.5C130.812 50.1458 130.75 49.7917 130.562 49.4375C130.812 49.25 131 49.0104 131.125 48.7188C131.229 48.4271 131.333 48.125 131.438 47.8125C131.521 47.5 131.615 47.1979 131.719 46.9062C131.823 46.6146 132 46.375 132.25 46.1875L132.219 45.6875C133.198 44.6458 134.24 43.6875 135.344 42.8125C136.427 41.9583 137.656 41.3229 139.031 40.9062C139.302 40.4271 139.656 40.0729 140.094 39.8438C140.531 39.6354 140.979 39.4375 141.438 39.25C141.875 39.0833 142.281 38.8646 142.656 38.5938C143.031 38.3438 143.312 37.9375 143.5 37.375C143.604 37.6042 143.708 37.6979 143.812 37.6562C143.917 37.6354 144.021 37.5833 144.125 37.5C144.25 37.4375 144.365 37.3854 144.469 37.3438C144.573 37.3229 144.677 37.4167 144.781 37.625C144.99 37 145.323 36.5 145.781 36.125C146.26 35.75 146.781 35.4167 147.344 35.125C147.927 34.8542 148.51 34.5833 149.094 34.3125C149.677 34.0625 150.188 33.75 150.625 33.375C151.083 33 151.427 32.5417 151.656 32C151.885 31.4375 151.938 30.7188 151.812 29.8438C152 29.7188 152.125 29.5625 152.188 29.375C152.25 29.1667 152.292 28.9583 152.312 28.75C152.354 28.5417 152.406 28.3542 152.469 28.1875C152.531 28.0208 152.667 27.9062 152.875 27.8438C152.729 27.6146 152.552 27.5104 152.344 27.5312C152.135 27.5521 151.917 27.6146 151.688 27.7188C151.479 27.8229 151.281 27.9271 151.094 28.0312C150.906 28.1354 150.75 28.1562 150.625 28.0938C150.562 28.3854 150.427 28.5938 150.219 28.7188C150.031 28.8438 149.823 28.9583 149.594 29.0625C149.365 29.1458 149.125 29.2396 148.875 29.3438C148.625 29.4479 148.427 29.6146 148.281 29.8438C148.094 29.7604 147.917 29.8021 147.75 29.9688C147.604 30.1146 147.448 30.2812 147.281 30.4688C147.135 30.6354 146.969 30.7604 146.781 30.8438C146.594 30.9271 146.375 30.8438 146.125 30.5938C146 30.9271 145.792 31.1458 145.5 31.25C145.229 31.3542 144.927 31.4062 144.594 31.4062C144.26 31.4062 143.917 31.3854 143.562 31.3438C143.229 31.3021 142.927 31.3125 142.656 31.375L142.125 30.8438C142.083 30.9479 142.021 31.0312 141.938 31.0938C141.833 31.1562 141.729 31.1667 141.625 31.125C141.458 30.7708 141.302 30.3958 141.156 30C140.99 29.5833 140.885 29.1771 140.844 28.7812C140.781 28.3646 140.812 27.9688 140.938 27.5938C141.062 27.1979 141.312 26.8542 141.688 26.5625C142.271 25.5 143.031 24.6667 143.969 24.0625C144.073 24.1458 144.188 24.1771 144.312 24.1562C144.438 24.1146 144.562 24.0625 144.688 24C144.833 23.9167 144.969 23.8333 145.094 23.75C145.219 23.6458 145.333 23.5833 145.438 23.5625C145.5 23.3333 145.615 23.1146 145.781 22.9062C145.969 22.6979 146.167 22.5104 146.375 22.3438C146.604 22.1771 146.833 22.0312 147.062 21.9062C147.312 21.7604 147.542 21.6354 147.75 21.5312C148.146 21.3438 148.51 21.1146 148.844 20.8438C149.198 20.5521 149.552 20.2812 149.906 20.0312C150.26 19.7604 150.625 19.5312 151 19.3438C151.375 19.1562 151.802 19.0625 152.281 19.0625L152.844 19.5625C152.49 19.7708 152.177 20.0312 151.906 20.3438C151.656 20.6354 151.396 20.9375 151.125 21.25C150.854 21.5417 150.562 21.8125 150.25 22.0625C149.938 22.3125 149.552 22.4792 149.094 22.5625C148.719 23.2917 148.208 23.9167 147.562 24.4375C146.938 24.9375 146.292 25.4062 145.625 25.8438C145.625 26.1562 145.531 26.4062 145.344 26.5938C145.156 26.7812 144.938 26.9479 144.688 27.0938C144.438 27.2396 144.188 27.375 143.938 27.5C143.688 27.6042 143.479 27.75 143.312 27.9375C143.167 28.1042 143.094 28.3229 143.094 28.5938C143.094 28.8438 143.229 29.1771 143.5 29.5938C143.75 29.4688 144.052 29.3854 144.406 29.3438C144.76 29.3021 145.104 29.25 145.438 29.1875C145.771 29.1042 146.062 28.9896 146.312 28.8438C146.583 28.6771 146.771 28.4271 146.875 28.0938C147.167 27.8438 147.479 27.6875 147.812 27.625C148.146 27.5625 148.49 27.5521 148.844 27.5938C149.531 26.8438 150.219 26.1562 150.906 25.5312C151.615 24.8854 152.281 24.2292 152.906 23.5625C153.531 22.8958 154.104 22.1875 154.625 21.4375C155.167 20.6667 155.635 19.7812 156.031 18.7812C156.448 18.6562 156.823 18.7083 157.156 18.9375C157.49 19.1667 157.729 19.4583 157.875 19.8125C157.833 20.0625 157.76 20.3021 157.656 20.5312C157.573 20.7396 157.49 20.9479 157.406 21.1562C157.344 21.3438 157.292 21.5521 157.25 21.7812C157.229 22.0104 157.271 22.2708 157.375 22.5625C157.208 22.5208 157.073 22.5729 156.969 22.7188C156.885 22.8646 156.792 22.9896 156.688 23.0938C156.75 23.3646 156.74 23.6146 156.656 23.8438C156.573 24.0521 156.469 24.2604 156.344 24.4688C156.219 24.6562 156.104 24.8646 156 25.0938C155.917 25.3229 155.896 25.5729 155.938 25.8438C155.646 26.3854 155.427 26.9583 155.281 27.5625C155.156 28.1458 155.073 28.7396 155.031 29.3438L155.594 29.8438C155.865 29.4479 156.198 29.1667 156.594 29C157.01 28.8333 157.427 28.6979 157.844 28.5938C158.26 28.4688 158.667 28.3333 159.062 28.1875C159.458 28.0208 159.802 27.7396 160.094 27.3438C160.219 26.7396 160.479 26.3125 160.875 26.0625C161.271 25.7917 161.688 25.5625 162.125 25.375C162.562 25.1875 162.979 24.9792 163.375 24.75C163.792 24.5 164.083 24.1042 164.25 23.5625H165.031C164.99 23.6667 165.01 23.7604 165.094 23.8438C165.177 23.9271 165.25 24 165.312 24.0625ZM148.031 37.9062C147.823 38.0312 147.594 38.1458 147.344 38.25C147.094 38.3542 146.844 38.4688 146.594 38.5938C146.344 38.7188 146.115 38.8646 145.906 39.0312C145.698 39.1979 145.542 39.4062 145.438 39.6562C145.208 39.5312 144.99 39.5208 144.781 39.625C144.594 39.75 144.406 39.8854 144.219 40.0312C144.031 40.1979 143.833 40.3333 143.625 40.4375C143.438 40.5417 143.229 40.5312 143 40.4062C142.604 40.6562 142.229 40.9271 141.875 41.2188C141.5 41.5104 141.125 41.7917 140.75 42.0625C140.375 42.3542 139.99 42.6146 139.594 42.8438C139.177 43.0938 138.74 43.2812 138.281 43.4062C138.052 43.7812 137.75 44.0729 137.375 44.2812C137 44.5104 136.625 44.7292 136.25 44.9375C135.854 45.1458 135.5 45.3958 135.188 45.6875C134.875 45.9792 134.677 46.3854 134.594 46.9062C133.948 47.3229 133.51 47.8542 133.281 48.5C133.031 49.1667 132.896 49.8646 132.875 50.5938C132.854 51.3438 132.885 52.0938 132.969 52.8438C133.052 53.6146 133.094 54.3125 133.094 54.9375C133.365 55.25 133.635 55.4688 133.906 55.5938C134.177 55.7188 134.458 55.7812 134.75 55.7812C135.042 55.7812 135.344 55.7396 135.656 55.6562C135.948 55.5938 136.271 55.5312 136.625 55.4688C136.708 55.1562 136.865 54.9479 137.094 54.8438C137.302 54.7604 137.531 54.6979 137.781 54.6562C138.01 54.6146 138.229 54.5521 138.438 54.4688C138.625 54.4062 138.729 54.2396 138.75 53.9688L139.031 54.2188C139.052 53.8854 139.146 53.6042 139.312 53.375C139.479 53.1667 139.677 52.9688 139.906 52.7812C140.135 52.5938 140.385 52.4167 140.656 52.25C140.906 52.0833 141.125 51.8958 141.312 51.6875C141.271 51.2917 141.344 50.9583 141.531 50.6875C141.719 50.4167 141.927 50.1667 142.156 49.9375C142.385 49.7083 142.594 49.4583 142.781 49.1875C142.948 48.9167 143.01 48.5729 142.969 48.1562C143.177 48.0729 143.323 47.9375 143.406 47.75C143.49 47.5625 143.573 47.3854 143.656 47.2188C143.74 47.0521 143.844 46.9271 143.969 46.8438C144.115 46.7604 144.333 46.7812 144.625 46.9062C144.333 46.6771 144.208 46.5 144.25 46.375C144.312 46.25 144.417 46.1354 144.562 46.0312C144.708 45.9479 144.844 45.8438 144.969 45.7188C145.094 45.5938 145.094 45.4062 144.969 45.1562C145.469 44.9479 145.792 44.6458 145.938 44.25C146.083 43.8542 146.188 43.4271 146.25 42.9688C146.333 42.5312 146.448 42.0938 146.594 41.6562C146.74 41.2396 147.062 40.9062 147.562 40.6562C147.521 40.2812 147.583 39.9479 147.75 39.6562C147.938 39.3854 148.115 39.125 148.281 38.875C148.469 38.625 148.594 38.3646 148.656 38.0938C148.74 37.8229 148.667 37.5 148.438 37.125L148.031 37.9062Z" fill="black"/>
<path d="M185.094 25.1875C184.99 25.8333 184.865 26.3333 184.719 26.6875C184.573 27.0208 184.385 27.3021 184.156 27.5312C183.948 27.7396 183.677 27.9479 183.344 28.1562C183.01 28.3438 182.615 28.625 182.156 29C181.99 29.125 181.833 29.2396 181.688 29.3438C181.542 29.4479 181.396 29.5729 181.25 29.7188C180.833 29.8438 180.323 30.0521 179.719 30.3438C179.115 30.6146 178.49 30.8958 177.844 31.1875C177.219 31.4583 176.615 31.6979 176.031 31.9062C175.469 32.1146 175.01 32.1979 174.656 32.1562C174.531 32.3229 174.312 32.4271 174 32.4688C173.688 32.5104 173.448 32.5312 173.281 32.5312C173.01 32.5312 172.729 32.5521 172.438 32.5938C172.167 32.6354 171.927 32.7604 171.719 32.9688C171.677 33.0104 171.646 33.0312 171.625 33.0312C171.625 33.0521 171.625 33.0625 171.625 33.0625C171.646 33.0625 171.646 33.0625 171.625 33.0625C171.625 33.0833 171.604 33.125 171.562 33.1875C171.333 33.4583 171.094 33.6042 170.844 33.625C170.615 33.6458 170.385 33.6042 170.156 33.5C169.927 33.4167 169.688 33.3021 169.438 33.1562C169.208 33.0104 168.969 32.9062 168.719 32.8438C168.49 32.7604 168.25 32.75 168 32.8125C167.75 32.8542 167.5 33.0208 167.25 33.3125C167.104 32.9375 166.875 32.7188 166.562 32.6562C166.25 32.5938 165.927 32.5625 165.594 32.5625C165.281 32.5417 164.979 32.5104 164.688 32.4688C164.396 32.4062 164.198 32.2083 164.094 31.875V31.8438L163.438 31.2812L163.344 31.375C163.24 31.4792 163.156 31.5938 163.094 31.7188C163.031 31.8438 162.958 31.9583 162.875 32.0625C162.708 32.3125 162.531 32.5625 162.344 32.8125C162.156 33.0417 161.948 33.2396 161.719 33.4062C161.469 33.5938 161.208 33.7292 160.938 33.8125C160.667 33.9167 160.375 33.9479 160.062 33.9062C160.062 33.4062 160.208 32.9479 160.5 32.5312C160.771 32.1146 161.042 31.7083 161.312 31.3125C161.562 30.8958 161.729 30.4792 161.812 30.0625C161.875 29.625 161.698 29.1667 161.281 28.6875C161.26 28.3958 161.135 28.1146 160.906 27.8438C160.656 27.5521 160.427 27.2708 160.219 27C160.01 26.7083 159.896 26.4271 159.875 26.1562C159.833 25.8854 160.01 25.6146 160.406 25.3438C160.219 25.3021 160.094 25.2292 160.031 25.125C160.031 25.0208 160.062 24.9167 160.125 24.8125C160.167 24.6875 160.208 24.5729 160.25 24.4688C160.375 24.4688 160.51 24.4479 160.656 24.4062C160.781 24.3438 160.906 24.3021 161.031 24.2812C161.135 24.2396 161.24 24.2396 161.344 24.2812C161.427 24.3021 161.51 24.3958 161.594 24.5625C161.656 24.6875 161.708 24.8229 161.75 24.9688C161.792 25.1146 161.844 25.2604 161.906 25.4062C162.073 25.8229 162.281 26.2188 162.531 26.5938C162.781 26.9479 163.062 27.2812 163.375 27.5938L163.469 27.6875C163.469 27.6667 163.51 27.6146 163.594 27.5312C163.677 27.4479 163.771 27.3646 163.875 27.2812C163.979 27.1771 164.073 27.0833 164.156 27C164.24 26.9167 164.302 26.8542 164.344 26.8125C164.594 26.5833 164.833 26.3646 165.062 26.1562C165.292 25.9479 165.49 25.7396 165.656 25.5312C165.844 25.3021 165.979 25.0521 166.062 24.7812C166.167 24.4896 166.219 24.1562 166.219 23.7812C166.865 23.3438 167.5 22.8646 168.125 22.3438C168.75 21.8021 169.385 21.2812 170.031 20.7812C170.677 20.2812 171.344 19.8333 172.031 19.4375C172.74 19.0417 173.5 18.7708 174.312 18.625C174.5 18.9583 174.719 19.2188 174.969 19.4062C175.219 19.5938 175.458 19.7812 175.688 19.9688C175.938 20.1562 176.156 20.3854 176.344 20.6562C176.552 20.9271 176.698 21.3021 176.781 21.7812C176.948 22.6771 176.948 23.5208 176.781 24.3125C176.635 25.1042 176.417 25.9271 176.125 26.7812C175.958 27.2812 175.802 27.7917 175.656 28.3125C175.531 28.8333 175.469 29.3646 175.469 29.9062L175.688 29.9688C175.875 29.7188 176.083 29.5625 176.312 29.5C176.562 29.4375 176.812 29.3958 177.062 29.375C177.312 29.3542 177.552 29.3229 177.781 29.2812C178.031 29.2188 178.24 29.0625 178.406 28.8125C178.677 28.9167 178.927 28.9271 179.156 28.8438C179.406 28.7396 179.646 28.6042 179.875 28.4375C180.104 28.2708 180.333 28.0938 180.562 27.9062C180.792 27.7188 181.031 27.5938 181.281 27.5312L181.25 27.2812C181.625 27.0312 181.948 26.8542 182.219 26.75C182.49 26.6458 182.74 26.5417 182.969 26.4375C183.198 26.3333 183.427 26.1875 183.656 26C183.885 25.8125 184.146 25.5 184.438 25.0625C184.542 25.0208 184.656 25.0104 184.781 25.0312C184.927 25.0312 185.031 25.0833 185.094 25.1875ZM174.188 22.0938C174.083 22.0521 173.969 22.0208 173.844 22C173.74 21.9583 173.635 21.9062 173.531 21.8438C173.344 21.7188 173.167 21.625 173 21.5625C172.833 21.5 172.635 21.5208 172.406 21.625V21.6875H172.375C171.312 22.5 170.323 23.3958 169.406 24.375C168.51 25.3333 167.562 26.2708 166.562 27.1875L166.281 26.9062C166.135 27.0938 166.052 27.2917 166.031 27.5C166.031 27.7083 166.031 27.9062 166.031 28.0938C166.031 28.2812 166.01 28.4583 165.969 28.625C165.927 28.7917 165.802 28.9479 165.594 29.0938L165.5 29.1562C165.583 29.4479 165.698 29.6354 165.844 29.7188C166.01 29.7812 166.177 29.8125 166.344 29.8125C166.531 29.7917 166.708 29.7708 166.875 29.75C167.042 29.7292 167.177 29.7604 167.281 29.8438C167.344 29.8854 167.385 29.9479 167.406 30.0312C167.427 30.1146 167.438 30.1875 167.438 30.25C167.542 30.25 167.646 30.25 167.75 30.25C167.875 30.25 168 30.2396 168.125 30.2188C168.354 30.1771 168.594 30.1771 168.844 30.2188C169.115 30.2396 169.271 30.3958 169.312 30.6875C169.729 30.5208 170.156 30.3438 170.594 30.1562C171.031 29.9688 171.385 29.6667 171.656 29.25L171.875 29.4688C171.896 29.4688 171.906 29.4688 171.906 29.4688C171.927 29.4479 171.948 29.4375 171.969 29.4375C172.49 29.125 172.896 28.6667 173.188 28.0625C173.5 27.4583 173.729 26.8021 173.875 26.0938C174.021 25.3854 174.104 24.6771 174.125 23.9688C174.167 23.2604 174.188 22.6354 174.188 22.0938Z" fill="black"/>
<path d="M217.531 26.1875C217.073 27.2292 216.656 28.0417 216.281 28.625C215.906 29.1875 215.49 29.6562 215.031 30.0312C214.594 30.4062 214.083 30.7604 213.5 31.0938C212.917 31.4062 212.198 31.8542 211.344 32.4375C210.99 32.4583 210.604 32.5417 210.188 32.6875C209.771 32.8125 209.417 32.9896 209.125 33.2188C208.5 33.1562 207.927 33.0208 207.406 32.8125C206.885 32.6042 206.396 32.2708 205.938 31.8125C205.833 31.7083 205.74 31.5938 205.656 31.4688C205.573 31.3438 205.479 31.2292 205.375 31.125C205.146 30.8542 205 30.6146 204.938 30.4062C204.875 30.1979 204.823 29.9271 204.781 29.5938C204.698 29.1146 204.573 28.7708 204.406 28.5625C204.24 28.3542 203.917 28.4583 203.438 28.875L203.156 28.625L203.094 28.6875C202.906 28.8333 202.75 28.9583 202.625 29.0625C202.521 29.1667 202.406 29.2812 202.281 29.4062C202.177 29.5104 202.073 29.625 201.969 29.75C201.865 29.875 201.74 30.0312 201.594 30.2188C201.344 30.5312 201.062 30.8542 200.75 31.1875C200.458 31.5208 200.115 31.75 199.719 31.875C199.656 31.9375 199.604 32 199.562 32.0625C199.521 32.1042 199.448 32.1354 199.344 32.1562C199.219 32.1979 199.073 32.1875 198.906 32.125C198.74 32.0625 198.604 31.9792 198.5 31.875C198.271 31.875 198.062 31.9375 197.875 32.0625C197.708 32.1667 197.542 32.3125 197.375 32.5C197.229 32.6667 197.083 32.8438 196.938 33.0312C196.812 33.2188 196.667 33.375 196.5 33.5C196.167 33.375 195.854 33.3542 195.562 33.4375C195.292 33.5208 195.021 33.5938 194.75 33.6562C194.479 33.7396 194.208 33.7708 193.938 33.75C193.667 33.75 193.396 33.5938 193.125 33.2812C193 32.6562 192.896 32.0833 192.812 31.5625C192.729 31.125 192.656 30.7083 192.594 30.3125C192.531 29.9167 192.5 29.6771 192.5 29.5938C192.604 29.4896 192.656 29.3542 192.656 29.1875C192.635 29 192.604 28.8438 192.562 28.7188C192.521 28.6979 192.5 28.6771 192.5 28.6562C192.5 28.6354 192.479 28.6146 192.438 28.5938C192.542 28.5104 192.625 28.4062 192.688 28.2812C192.729 28.1562 192.802 28.0521 192.906 27.9688C192.844 27.8021 192.771 27.6146 192.688 27.4062C192.604 27.1979 192.562 26.9896 192.562 26.7812C192.625 26.6146 192.688 26.5208 192.75 26.5C192.792 26.4792 192.906 26.4479 193.094 26.4062C193.073 26.3021 193.052 26.2083 193.031 26.125C192.99 26.0208 192.979 25.9167 193 25.8125C193 25.6042 193.052 25.4271 193.156 25.2812C193.24 25.1146 193.333 24.9583 193.438 24.8125C193.542 24.6458 193.635 24.4688 193.719 24.2812C193.802 24.0938 193.844 23.875 193.844 23.625V23.4688C194.156 23.4688 194.365 23.3854 194.469 23.2188C194.573 23.0312 194.635 22.8229 194.656 22.5938C194.677 22.3646 194.688 22.1354 194.688 21.9062C194.688 21.6771 194.75 21.5104 194.875 21.4062C194.958 21.3229 195.031 21.2917 195.094 21.3125C195.177 21.3125 195.271 21.3125 195.375 21.3125C195.5 21.1667 195.583 21.0625 195.625 21C195.667 20.9167 195.656 20.7708 195.594 20.5625C195.74 20.5625 195.854 20.5312 195.938 20.4688C196.021 20.4062 196.083 20.3229 196.125 20.2188C196.188 20.1146 196.24 20.0104 196.281 19.9062C196.344 19.8021 196.417 19.7083 196.5 19.625C196.5 19.1042 196.635 18.7396 196.906 18.5312C197.177 18.3229 197.479 18.1562 197.812 18.0312C198.167 17.8854 198.51 17.7188 198.844 17.5312C199.198 17.3438 199.458 17.0104 199.625 16.5312C199.896 16.6979 200.125 16.7188 200.312 16.5938C200.5 16.4479 200.677 16.3021 200.844 16.1562C201.01 15.9896 201.198 15.8854 201.406 15.8438C201.615 15.7812 201.875 15.9167 202.188 16.25C202.312 15.8542 202.562 15.6458 202.938 15.625C203.333 15.6042 203.688 15.6875 204 15.875V15.9062H204.031C204.365 15.9688 204.615 16.1354 204.781 16.4062C204.948 16.6562 205.083 16.9479 205.188 17.2812C205.312 17.5938 205.438 17.9062 205.562 18.2188C205.708 18.5312 205.906 18.7812 206.156 18.9688C206.281 18.4271 206.396 17.875 206.5 17.3125C206.625 16.75 206.823 16.2188 207.094 15.7188C207.281 15.9479 207.479 15.9896 207.688 15.8438L207.656 15.7812C207.656 15.4479 207.719 15.1458 207.844 14.875C207.99 14.6042 208.125 14.3438 208.25 14.0938C208.396 13.8229 208.479 13.5521 208.5 13.2812C208.542 12.9896 208.448 12.6667 208.219 12.3125C208.573 12.2083 208.823 12.0104 208.969 11.7188C209.135 11.4271 209.26 11.1146 209.344 10.7812C209.448 10.4271 209.552 10.0729 209.656 9.71875C209.781 9.36458 209.969 9.0625 210.219 8.8125C210.219 8.75 210.208 8.6875 210.188 8.625C210.188 8.5625 210.188 8.5 210.188 8.4375C210.208 8.27083 210.271 8.125 210.375 8C210.479 7.875 210.594 7.75 210.719 7.625C210.844 7.5 210.948 7.36458 211.031 7.21875C211.135 7.05208 211.177 6.85417 211.156 6.625C211.365 6.35417 211.552 6 211.719 5.5625C211.885 5.10417 212.062 4.67708 212.25 4.28125C212.438 3.88542 212.656 3.59375 212.906 3.40625C213.156 3.19792 213.479 3.20833 213.875 3.4375C213.958 3.6875 213.99 3.91667 213.969 4.125C213.948 4.3125 213.833 4.51042 213.625 4.71875C213.75 4.84375 213.844 4.94792 213.906 5.03125C213.844 5.67708 213.719 6.32292 213.531 6.96875C213.365 7.59375 213.198 8.20833 213.031 8.8125C213.073 8.85417 213.115 8.89583 213.156 8.9375C213.198 8.97917 213.24 9.02083 213.281 9.0625C212.927 9.5625 212.635 10.0625 212.406 10.5625C212.198 11.0625 212.01 11.6042 211.844 12.1875C211.781 12.4167 211.719 12.6562 211.656 12.9062C211.615 13.1562 211.552 13.3854 211.469 13.5938C211.365 13.8021 211.24 14.0312 211.094 14.2812C210.948 14.5104 210.823 14.7396 210.719 14.9688C210.49 15.4479 210.281 15.9375 210.094 16.4375C209.927 16.9167 209.76 17.4062 209.594 17.9062C209.385 18.5104 209.167 19.1042 208.938 19.6875C208.729 20.2708 208.469 20.8438 208.156 21.4062V21.9062C208.135 22.1354 208.062 22.3021 207.938 22.4062C207.812 22.4896 207.667 22.5729 207.5 22.6562C207.354 22.7188 207.208 22.8229 207.062 22.9688C206.917 23.0938 206.812 23.3125 206.75 23.625V23.6562L206.781 23.6875C206.99 24.1458 207.031 24.5729 206.906 24.9688C206.802 25.3438 206.677 25.7188 206.531 26.0938C206.385 26.4479 206.281 26.8021 206.219 27.1562C206.177 27.5104 206.323 27.875 206.656 28.25C206.635 28.6667 206.719 29 206.906 29.25C207.094 29.4792 207.312 29.6771 207.562 29.8438C207.812 30.0104 208.062 30.1667 208.312 30.3125C208.583 30.4375 208.781 30.6042 208.906 30.8125C209.115 30.6042 209.333 30.4479 209.562 30.3438C209.812 30.2188 210.052 30.125 210.281 30.0625C210.531 30 210.771 29.9479 211 29.9062C211.25 29.8438 211.49 29.7708 211.719 29.6875C212.26 29.5417 212.635 29.3646 212.844 29.1562C213.052 28.9479 213.156 28.8125 213.156 28.75C213.177 28.4583 213.281 28.2708 213.469 28.1875C213.677 28.1042 213.906 28.0521 214.156 28.0312C214.427 27.9896 214.688 27.9375 214.938 27.875C215.208 27.8125 215.406 27.6562 215.531 27.4062C215.76 27.4271 215.958 27.3542 216.125 27.1875C216.312 27 216.479 26.8125 216.625 26.625C216.771 26.4375 216.917 26.2812 217.062 26.1562C217.208 26.0312 217.365 26.0417 217.531 26.1875ZM204.688 21.375C204.354 21.125 204.125 20.8438 204 20.5312C203.896 20.1979 203.802 19.8646 203.719 19.5312C203.656 19.1979 203.562 18.8854 203.438 18.5938C203.333 18.2812 203.115 18.0208 202.781 17.8125L202.719 17.7812C202.698 17.7812 202.583 17.8021 202.375 17.8438C202.167 17.8854 202.042 17.9167 202 17.9375C202.167 18.0833 202.271 18.2083 202.312 18.3125C202.354 18.4167 202.354 18.5208 202.312 18.625C202.292 18.7292 202.24 18.8438 202.156 18.9688C202.094 19.0729 202.042 19.2083 202 19.375C201.958 19.4167 201.875 19.4062 201.75 19.3438C201.625 19.2604 201.531 19.1979 201.469 19.1562C201.177 19.5938 200.76 19.8854 200.219 20.0312C199.698 20.1562 199.198 20.2812 198.719 20.4062C198.76 20.5104 198.802 20.6042 198.844 20.6875C198.885 20.7708 198.927 20.8646 198.969 20.9688C198.344 21.3854 197.885 21.8958 197.594 22.5C197.323 23.0833 197.073 23.6979 196.844 24.3438C196.635 24.9688 196.375 25.5833 196.062 26.1875C195.771 26.7708 195.312 27.2708 194.688 27.6875C194.792 27.8542 194.865 28.0208 194.906 28.1875C194.948 28.3542 195.083 28.4792 195.312 28.5625C195.375 28.7917 195.396 29.0312 195.375 29.2812C195.375 29.5104 195.354 29.7396 195.312 29.9688C195.271 30.1979 195.24 30.4375 195.219 30.6875C195.219 30.9167 195.25 31.1562 195.312 31.4062L195.375 31.4688C196.021 31.6979 196.521 31.7188 196.875 31.5312C197.25 31.3438 197.573 31.1042 197.844 30.8125C198.135 30.5208 198.448 30.25 198.781 30C199.115 29.75 199.583 29.6875 200.188 29.8125L200.312 29.625C200.271 29.5208 200.24 29.4271 200.219 29.3438C200.198 29.2604 200.188 29.1667 200.188 29.0625C200.208 28.8333 200.271 28.6562 200.375 28.5312C200.479 28.3854 200.615 28.2292 200.781 28.0625C200.927 27.8958 201.062 27.7188 201.188 27.5312C201.333 27.3438 201.469 27.1458 201.594 26.9375C201.719 26.75 201.865 26.5938 202.031 26.4688C202.198 26.3229 202.417 26.3021 202.688 26.4062L203.281 24.1562C203.302 24.0521 203.396 23.9583 203.562 23.875C203.75 23.7917 203.906 23.6979 204.031 23.5938C204.177 23.4896 204.26 23.3542 204.281 23.1875C204.323 23.0208 204.208 22.8021 203.938 22.5312C203.979 22.4479 204.01 22.3438 204.031 22.2188C204.052 22.0938 204.083 21.9792 204.125 21.875C204.167 21.7708 204.219 21.6875 204.281 21.625C204.344 21.5625 204.448 21.5521 204.594 21.5938L204.688 21.375Z" fill="black"/>
<path d="M236 23.1875C236.083 23.5 236.052 23.7708 235.906 24C235.76 24.2083 235.562 24.3958 235.312 24.5625C235.083 24.7292 234.823 24.8854 234.531 25.0312C234.26 25.1562 234.031 25.3021 233.844 25.4688C232.906 25.6771 232.052 25.8333 231.281 25.9375C230.531 26.0208 229.698 26.1354 228.781 26.2812C228.51 26.3229 228.25 26.3229 228 26.2812C227.771 26.2188 227.531 26.1979 227.281 26.2188C227.135 26.2188 227 26.2188 226.875 26.2188C226.75 26.1979 226.625 26.1979 226.5 26.2188C226.021 26.2604 225.708 26.4271 225.562 26.7188C225.417 26.9896 225.292 27.3125 225.188 27.6875C225.104 28.0417 224.99 28.3854 224.844 28.7188C224.719 29.0312 224.438 29.25 224 29.375C223.958 29.4792 223.969 29.5729 224.031 29.6562C224.115 29.7396 224.177 29.8125 224.219 29.875C223.865 29.9792 223.625 30.1667 223.5 30.4375C223.396 30.7083 223.302 30.9792 223.219 31.25C223.135 31.5208 223.01 31.75 222.844 31.9375C222.698 32.125 222.406 32.1875 221.969 32.125C221.323 32.8125 220.562 33.3646 219.688 33.7812C218.812 34.2188 217.906 34.5 216.969 34.625C216.802 34.5417 216.635 34.4375 216.469 34.3125C216.323 34.1875 216.167 34.0729 216 33.9688C215.854 33.8646 215.688 33.7812 215.5 33.7188C215.333 33.6771 215.135 33.6771 214.906 33.7188C214.885 33.2812 214.802 32.875 214.656 32.5C214.49 32.125 214.281 31.7708 214.031 31.4375C213.99 31.0625 214.042 30.7188 214.188 30.4062C214.312 30.0729 214.448 29.75 214.594 29.4375C214.74 29.125 214.865 28.8125 214.969 28.5C215.052 28.1667 215.031 27.7917 214.906 27.375C215.115 27.25 215.25 27.1042 215.312 26.9375C215.396 26.7708 215.448 26.6042 215.469 26.4375C215.51 26.25 215.562 26.0833 215.625 25.9375C215.688 25.7708 215.833 25.6354 216.062 25.5312C215.896 25.0312 215.917 24.6667 216.125 24.4375C216.354 24.1875 216.625 23.9688 216.938 23.7812C217.25 23.5938 217.542 23.3854 217.812 23.1562C218.083 22.9271 218.188 22.5833 218.125 22.125C218.25 22 218.396 21.8958 218.562 21.8125C218.729 21.7292 218.885 21.6562 219.031 21.5938C219.198 21.5104 219.354 21.4271 219.5 21.3438C219.646 21.2604 219.781 21.1458 219.906 21C219.76 20.8958 219.688 20.7917 219.688 20.6875C219.708 20.5833 219.74 20.4792 219.781 20.375C219.823 20.25 219.865 20.125 219.906 20C219.969 19.875 219.969 19.75 219.906 19.625C220.469 19.7083 220.958 19.6354 221.375 19.4062C221.812 19.1562 222.219 18.9062 222.594 18.6562C222.99 18.4062 223.385 18.2292 223.781 18.125C224.177 18.0208 224.635 18.1458 225.156 18.5C225.198 18.6458 225.26 18.8646 225.344 19.1562C225.448 19.4271 225.542 19.7083 225.625 20C225.729 20.2917 225.823 20.5729 225.906 20.8438C225.99 21.1146 226.042 21.3125 226.062 21.4375C226.062 21.5417 226.062 21.7083 226.062 21.9375C226.062 22.1667 226.062 22.4167 226.062 22.6875C226.062 22.9375 226.062 23.1771 226.062 23.4062C226.062 23.6354 226.062 23.8125 226.062 23.9375C226.667 24.2917 227.271 24.5104 227.875 24.5938C228.479 24.6562 229.083 24.5104 229.688 24.1562C229.917 24.3646 230.135 24.4271 230.344 24.3438C230.552 24.2396 230.75 24.125 230.938 24C231.146 23.875 231.354 23.8125 231.562 23.8125C231.771 23.7917 231.979 23.9583 232.188 24.3125C232.479 24.0417 232.781 23.875 233.094 23.8125C233.406 23.7292 233.729 23.6875 234.062 23.6875C234.396 23.6667 234.719 23.6354 235.031 23.5938C235.365 23.5521 235.688 23.4167 236 23.1875ZM224 23.7188C224 23.4062 224.052 23.0729 224.156 22.7188C224.26 22.3646 224.344 22.0208 224.406 21.6875C224.469 21.3333 224.458 21 224.375 20.6875C224.312 20.375 224.115 20.0938 223.781 19.8438C223.552 19.9688 223.365 20.1458 223.219 20.375C223.073 20.5833 222.927 20.8021 222.781 21.0312C222.635 21.2396 222.458 21.4167 222.25 21.5625C222.062 21.7083 221.812 21.75 221.5 21.6875C221.396 21.9375 221.396 22.1458 221.5 22.3125C221.604 22.4583 221.729 22.6042 221.875 22.75C222.021 22.875 222.156 23.0104 222.281 23.1562C222.427 23.3021 222.479 23.4896 222.438 23.7188C222.521 23.7812 222.635 23.8438 222.781 23.9062C222.927 23.9479 223.073 23.9792 223.219 24C223.385 24 223.542 23.9792 223.688 23.9375C223.833 23.8958 223.938 23.8229 224 23.7188ZM223.781 26.2188C223.365 26.2188 223 26.125 222.688 25.9375C222.396 25.7292 222.094 25.5 221.781 25.25C221.49 25 221.177 24.7708 220.844 24.5625C220.531 24.3333 220.146 24.1979 219.688 24.1562C219.5 24.4062 219.281 24.6458 219.031 24.875C218.781 25.0833 218.562 25.3125 218.375 25.5625C218.188 25.8125 218.052 26.0833 217.969 26.375C217.906 26.6667 217.958 27 218.125 27.375C217.646 27.6042 217.323 27.9375 217.156 28.375C216.99 28.7917 216.875 29.25 216.812 29.75C216.771 30.25 216.729 30.75 216.688 31.25C216.646 31.75 216.51 32.1979 216.281 32.5938L216.969 32.125C217.052 32.1667 217.115 32.2292 217.156 32.3125C217.219 32.3958 217.229 32.4896 217.188 32.5938C217.354 32.4271 217.542 32.3021 217.75 32.2188C217.958 32.1146 218.167 32.0417 218.375 32C218.604 31.9375 218.823 31.8854 219.031 31.8438C219.26 31.8021 219.479 31.7396 219.688 31.6562C220.208 31.9479 220.583 32.0104 220.812 31.8438C221.042 31.6771 221.229 31.4271 221.375 31.0938C221.521 30.7604 221.677 30.4167 221.844 30.0625C222.01 29.6875 222.281 29.4583 222.656 29.375L222.438 29.1562C222.792 28.7188 223.104 28.2708 223.375 27.8125C223.667 27.3333 223.802 26.8021 223.781 26.2188Z" fill="black"/>
<path d="M249.031 31.875C249.052 32.125 249.01 32.3125 248.906 32.4375C248.802 32.5625 248.656 32.6562 248.469 32.7188C248.302 32.7812 248.115 32.8333 247.906 32.875C247.698 32.8958 247.521 32.9479 247.375 33.0312C246.771 32.9688 246.188 32.8854 245.625 32.7812C245.062 32.6562 244.542 32.4792 244.062 32.25C243.583 32 243.146 31.6771 242.75 31.2812C242.375 30.8854 242.052 30.3854 241.781 29.7812C242.052 29.3438 242.146 28.8646 242.062 28.3438C241.979 27.8021 241.896 27.2812 241.812 26.7812C241.75 26.2812 241.76 25.8229 241.844 25.4062C241.948 24.9896 242.312 24.6562 242.938 24.4062C242.896 24.1771 242.896 23.9271 242.938 23.6562C243 23.3854 242.927 23.1562 242.719 22.9688C241.99 23.2188 241.354 23.5729 240.812 24.0312C240.271 24.4896 239.75 24.9896 239.25 25.5312C238.771 26.0729 238.281 26.625 237.781 27.1875C237.302 27.7292 236.771 28.2083 236.188 28.625C235.917 28.6458 235.625 28.6354 235.312 28.5938C235.021 28.5312 234.771 28.6146 234.562 28.8438C234.583 28.9896 234.635 29.1146 234.719 29.2188C234.802 29.3229 234.865 29.4271 234.906 29.5312C234.969 29.6354 235 29.75 235 29.875C235 29.9792 234.927 30.1042 234.781 30.25C234.573 30.4583 234.344 30.6354 234.094 30.7812C233.865 30.9062 233.635 31.0521 233.406 31.2188C233.198 31.3646 233.021 31.5417 232.875 31.75C232.729 31.9583 232.656 32.2396 232.656 32.5938C232.531 32.5312 232.417 32.5208 232.312 32.5625C232.208 32.5833 232.115 32.6354 232.031 32.7188C231.927 32.8021 231.833 32.8958 231.75 33C231.667 33.1042 231.583 33.1875 231.5 33.25C231.458 33.3542 231.469 33.4375 231.531 33.5C231.594 33.5833 231.667 33.6667 231.75 33.75C231.667 33.9792 231.562 34.1146 231.438 34.1562C231.292 34.2188 231.146 34.2292 231 34.1875C230.833 34.1458 230.677 34.0729 230.531 33.9688C230.365 33.8854 230.219 33.8125 230.094 33.75C230.031 33.4792 229.99 33.1667 229.969 32.8125C229.948 32.4583 229.958 32.1146 230 31.7812C230.042 31.4271 230.125 31.0938 230.25 30.7812C230.375 30.4688 230.562 30.2083 230.812 30C230.896 29.9375 230.948 29.9062 230.969 29.9062C230.99 29.8854 231 29.875 231 29.875C231 29.875 231.01 29.875 231.031 29.875C231.052 29.8542 231.094 29.8125 231.156 29.75C231.323 29.5625 231.438 29.3646 231.5 29.1562C231.562 28.9271 231.615 28.6979 231.656 28.4688C231.698 28.2396 231.76 28.0208 231.844 27.8125C231.906 27.5833 232.031 27.3854 232.219 27.2188C232.135 26.8854 232.135 26.5938 232.219 26.3438C232.323 26.0729 232.448 25.8229 232.594 25.5938C232.76 25.3438 232.917 25.1042 233.062 24.875C233.229 24.625 233.333 24.3542 233.375 24.0625C233.396 23.9583 233.396 23.8646 233.375 23.7812C233.375 23.6771 233.375 23.5729 233.375 23.4688C233.333 23.1354 233.365 22.8854 233.469 22.7188C233.594 22.5312 233.74 22.3854 233.906 22.2812C234.094 22.1562 234.281 22.0312 234.469 21.9062C234.677 21.7812 234.854 21.5938 235 21.3438C235.604 21.6354 235.958 22.0312 236.062 22.5312C236.188 23.0104 236.229 23.5521 236.188 24.1562C235.833 24.3854 235.562 24.7083 235.375 25.125C235.188 25.5208 235.062 25.9062 235 26.2812C235.042 26.4062 235.094 26.4792 235.156 26.5C235.24 26.5 235.323 26.4896 235.406 26.4688C235.51 26.4271 235.604 26.3854 235.688 26.3438C235.771 26.3021 235.854 26.2812 235.938 26.2812C236.688 25.7604 237.427 25.1771 238.156 24.5312C238.906 23.8854 239.49 23.1458 239.906 22.3125C240.51 22.0208 241.083 21.6875 241.625 21.3125C242.167 20.9167 242.76 20.625 243.406 20.4375L244.125 19.7188C244.229 19.8854 244.354 19.9271 244.5 19.8438C244.646 19.7396 244.792 19.625 244.938 19.5C245.083 19.375 245.219 19.3021 245.344 19.2812C245.49 19.2604 245.625 19.4062 245.75 19.7188C245.958 20.2604 246.01 20.7917 245.906 21.3125C245.802 21.8125 245.635 22.3125 245.406 22.8125C245.198 23.2917 244.979 23.7812 244.75 24.2812C244.521 24.7812 244.385 25.2917 244.344 25.8125C244.344 25.9375 244.344 26.0729 244.344 26.2188C244.344 26.3438 244.333 26.4792 244.312 26.625C244.271 27.0625 244.208 27.5417 244.125 28.0625C244.062 28.5625 244.094 29.0208 244.219 29.4375C244.323 29.8125 244.542 30.1458 244.875 30.4375C245.208 30.7292 245.5 31.0208 245.75 31.3125C245.896 31.2917 246.042 31.3021 246.188 31.3438C246.333 31.3854 246.469 31.4271 246.594 31.4688C246.74 31.5104 246.875 31.5312 247 31.5312C247.125 31.5104 247.25 31.4375 247.375 31.3125C247.521 31.25 247.656 31.2604 247.781 31.3438C247.927 31.4062 248.062 31.4896 248.188 31.5938C248.312 31.6979 248.438 31.7917 248.562 31.875C248.708 31.9375 248.865 31.9375 249.031 31.875Z" fill="black"/>
<path d="M274.094 23.4375C273.906 23.625 273.76 23.7708 273.656 23.875C273.573 23.9792 273.49 24.0833 273.406 24.1875C273.344 24.2708 273.26 24.3646 273.156 24.4688C273.073 24.5729 272.938 24.7292 272.75 24.9375C272.583 25.1042 272.427 25.2812 272.281 25.4688C272.135 25.6562 271.969 25.8229 271.781 25.9688C271.531 25.9062 271.333 25.9375 271.188 26.0625C271.062 26.1875 270.938 26.3333 270.812 26.5C270.708 26.6458 270.604 26.7917 270.5 26.9375C270.417 27.0625 270.302 27.1146 270.156 27.0938C269.656 27.3646 269.156 27.6042 268.656 27.8125C268.156 28 267.677 28.2812 267.219 28.6562L266.969 28.4062L263.719 29.9688C263.615 30.0104 263.51 30.0729 263.406 30.1562C263.302 30.2396 263.198 30.3125 263.094 30.375C262.635 30.625 262.156 30.8542 261.656 31.0625C261.177 31.25 260.698 31.4271 260.219 31.5938L259.812 31.7188C259.979 32.1354 259.979 32.4271 259.812 32.5938C259.646 32.7604 259.406 32.8854 259.094 32.9688C258.781 33.0312 258.438 33.0729 258.062 33.0938C257.688 33.1146 257.396 33.1875 257.188 33.3125C256.938 33.2708 256.677 33.25 256.406 33.25C256.156 33.2708 255.896 33.3021 255.625 33.3438C255.333 33.3854 255.062 33.4062 254.812 33.4062C254.562 33.4062 254.292 33.375 254 33.3125H253.938C253.583 33.4792 253.271 33.5104 253 33.4062C252.75 33.3229 252.521 33.1771 252.312 32.9688C252.104 32.7396 251.906 32.4792 251.719 32.1875C251.552 31.875 251.375 31.5938 251.188 31.3438C251.062 31.1771 250.906 30.9375 250.719 30.625C250.531 30.3125 250.375 29.9792 250.25 29.625C250.104 29.2708 250.021 28.9167 250 28.5625C249.958 28.1875 250.031 27.8646 250.219 27.5938C250.406 27.3229 250.562 27.0312 250.688 26.7188C250.792 26.4062 250.844 26.0417 250.844 25.625C250.844 25.4792 250.844 25.3438 250.844 25.2188C250.823 25.0938 250.812 24.9583 250.812 24.8125C250.917 24.8125 251.031 24.8229 251.156 24.8438C251.281 24.8438 251.396 24.8438 251.5 24.8438C251.625 24.8229 251.719 24.7812 251.781 24.7188C251.865 24.6354 251.906 24.5 251.906 24.3125C251.906 24.2083 251.865 24.125 251.781 24.0625C251.719 24 251.677 23.9375 251.656 23.875C251.781 23.6875 251.896 23.5417 252 23.4375C252.125 23.3125 252.229 23.1979 252.312 23.0938C252.396 22.9688 252.458 22.8333 252.5 22.6875C252.542 22.5208 252.531 22.3021 252.469 22.0312C252.719 21.5938 253.01 21.2083 253.344 20.875C253.698 20.5208 254.062 20.1979 254.438 19.9062C254.812 19.5938 255.198 19.2917 255.594 19C255.99 18.7083 256.365 18.3958 256.719 18.0625C257.115 18.2292 257.427 18.2292 257.656 18.0625C257.906 17.8958 258.125 17.7188 258.312 17.5312C258.5 17.3229 258.688 17.1562 258.875 17.0312C259.062 16.9062 259.312 16.9583 259.625 17.1875L259.688 17.25C260.25 16.6875 260.812 16.4375 261.375 16.5C261.958 16.5625 262.448 16.75 262.844 17.0625C263.26 17.375 263.531 17.7396 263.656 18.1562C263.781 18.5521 263.667 18.8229 263.312 18.9688C263.542 19.1979 263.656 19.4688 263.656 19.7812C263.656 20.0938 263.573 20.3646 263.406 20.5938C263.219 20.8438 263.052 21.1042 262.906 21.375C262.781 21.625 262.646 21.8958 262.5 22.1875C262.292 22.6667 262.062 23.125 261.812 23.5625C261.562 23.9792 261.208 24.3333 260.75 24.625C260.375 24.5208 260.115 24.5625 259.969 24.75C259.844 24.9375 259.75 25.1458 259.688 25.375C259.625 25.5833 259.552 25.75 259.469 25.875C259.385 26 259.208 25.9583 258.938 25.75L258.875 25.6875L258.812 25.75C258.646 25.9167 258.51 26.1042 258.406 26.3125C258.323 26.5208 258.198 26.6771 258.031 26.7812C257.844 26.7188 257.646 26.6667 257.438 26.625C257.229 26.5833 257.031 26.5417 256.844 26.5C256.844 26.9375 256.76 27.2812 256.594 27.5312C256.427 27.7812 256.208 27.9896 255.938 28.1562C255.688 28.3021 255.396 28.4271 255.062 28.5312C254.729 28.6146 254.396 28.7292 254.062 28.875C253.75 29 253.448 29.1667 253.156 29.375C252.885 29.5625 252.667 29.8333 252.5 30.1875C252.708 30.4167 252.969 30.5521 253.281 30.5938C253.594 30.6146 253.917 30.6146 254.25 30.5938C254.583 30.5521 254.906 30.5312 255.219 30.5312C255.552 30.5312 255.844 30.6146 256.094 30.7812L256.125 30.8125L256.156 30.7812C256.656 30.7188 257.135 30.6042 257.594 30.4375C258.073 30.25 258.531 30.0625 258.969 29.875C259.427 29.6667 259.885 29.4792 260.344 29.3125C260.823 29.125 261.312 28.9896 261.812 28.9062C261.917 29.0729 262.052 29.1667 262.219 29.1875C262.406 29.2083 262.583 29.1979 262.75 29.1562L262.781 29.0938C262.823 28.9479 262.865 28.8229 262.906 28.7188C262.948 28.5938 263.01 28.4583 263.094 28.3125C263.24 28.0833 263.417 27.9062 263.625 27.7812C263.833 27.6562 264.052 27.5625 264.281 27.5C264.531 27.4375 264.792 27.3958 265.062 27.375C265.333 27.3542 265.604 27.3229 265.875 27.2812H265.938L265.969 27.1875C266.052 26.9375 266.156 26.7708 266.281 26.6875C266.427 26.5833 266.573 26.5104 266.719 26.4688C266.885 26.4271 267.052 26.3958 267.219 26.375C267.406 26.3542 267.583 26.2917 267.75 26.1875C268.125 26.3125 268.438 26.2708 268.688 26.0625C268.938 25.8542 269.177 25.6354 269.406 25.4062L269.656 25.7188L269.75 25.5938C270.062 25.3021 270.292 25.0833 270.438 24.9375C270.604 24.7917 270.76 24.6667 270.906 24.5625C271.052 24.4375 271.219 24.3229 271.406 24.2188C271.615 24.0938 271.896 23.9167 272.25 23.6875C272.542 23.5 272.823 23.3125 273.094 23.125C273.385 22.9375 273.667 22.7292 273.938 22.5C274.042 22.5417 274.094 22.625 274.094 22.75C274.094 22.8542 274.094 22.9583 274.094 23.0625C274.073 23.1042 274.052 23.1667 274.031 23.25C274.031 23.3333 274.052 23.3958 274.094 23.4375ZM261.156 19.5312C261.135 19.5104 261.115 19.5 261.094 19.5C261.094 19.5 261.083 19.4896 261.062 19.4688C260.625 19.2396 260.26 19.1354 259.969 19.1562C259.677 19.1562 259.406 19.2396 259.156 19.4062C258.927 19.5521 258.708 19.75 258.5 20C258.312 20.2292 258.104 20.4479 257.875 20.6562C257.667 20.8438 257.417 20.9896 257.125 21.0938C256.833 21.1979 256.479 21.1875 256.062 21.0625C256 21.3958 255.938 21.7292 255.875 22.0625C255.833 22.375 255.802 22.6979 255.781 23.0312C255.427 23.1562 255.146 23.3333 254.938 23.5625C254.75 23.7917 254.583 24.0417 254.438 24.3125C254.312 24.5833 254.188 24.875 254.062 25.1875C253.958 25.4792 253.812 25.7604 253.625 26.0312L253.75 26.1875C253.833 26.1458 253.927 26.1771 254.031 26.2812C254.135 26.3854 254.208 26.4583 254.25 26.5C254.479 26.1667 254.781 25.8854 255.156 25.6562C255.552 25.4271 255.948 25.2188 256.344 25.0312C256.76 24.8229 257.156 24.6042 257.531 24.375C257.906 24.1458 258.188 23.8438 258.375 23.4688C259.042 23.2812 259.542 22.9062 259.875 22.3438C260.208 21.7812 260.49 21.1979 260.719 20.5938C260.76 20.4688 260.833 20.2917 260.938 20.0625C261.062 19.8125 261.135 19.6354 261.156 19.5312Z" fill="black"/>
</svg>
